<svg id="classes_coloring" xmlns="http://www.w3.org/2000/svg" xmlns:xlink="http://www.w3.org/1999/xlink" width="380.252" height="258.473" viewBox="0 0 380.252 258.473">
  <defs>
    <clipPath id="clip-path">
      <path id="Path_925" data-name="Path 925" d="M96.758,43.89H444.276a16.356,16.356,0,0,1,16.356,16.356V302.363H80.38V60.246A16.356,16.356,0,0,1,96.758,43.89Z" transform="translate(-80.38 -43.89)" fill="none"/>
    </clipPath>
    <linearGradient id="linear-gradient" x1="0.355" y1="0.854" x2="1.126" y2="-0.075" gradientUnits="objectBoundingBox">
      <stop offset="0" stop-color="#fff" stop-opacity="0"/>
      <stop offset="1" stop-color="#fff"/>
    </linearGradient>
  </defs>
  <g id="Layer_4" data-name="Layer 4" transform="translate(0 0)">
    <g id="Group_58" data-name="Group 58" clip-path="url(#clip-path)">
      <path id="Path_814" data-name="Path 814" d="M228.878,67.875v85.284L118.34,143.68V30.52Z" transform="translate(-36.753 -59.256)" fill="#adafb4"/>
      <path id="Path_815" data-name="Path 815" d="M228.878,68.7V75.4l-20.4-5.76L169.858,87.031,118.34,66.054V59.09L169.708,80l38.257-17.216Z" transform="translate(-36.753 -26.421)" fill="#9c9ea3"/>
      <path id="Path_816" data-name="Path 816" d="M228.878,67.886S129.71,61.653,118.34,143.691V30.51Z" transform="translate(-36.753 -59.267)" fill="#0c080c" opacity="0.1"/>
      <path id="Path_817" data-name="Path 817" d="M169.77,162.467V77.184L338.446,22.42V153.526Z" transform="translate(22.355 -68.565)" fill="#9c9ea3"/>
      <path id="Path_818" data-name="Path 818" d="M404.992,26.761,220.411,86.7,117.03,50.252V40.43L404.992,16.96Z" transform="translate(-38.259 -74.84)" fill="#cbccd0"/>
      <path id="Path_819" data-name="Path 819" d="M404.992,36.452,220.411,96.374,117.03,59.922,301.611,0Z" transform="translate(-38.259 -94.332)" fill="#adafb4"/>
      <path id="Path_820" data-name="Path 820" d="M169.77,63.071v75.805S202.009,50.755,257.139,34.7Z" transform="translate(22.355 -54.452)" fill="#e8e8eb" opacity="0.1"/>
      <path id="Path_821" data-name="Path 821" d="M181.709,51.508v6.9S161.356,44.351,149.9,40.31Z" transform="translate(-0.481 -48.004)" fill="#0c080c" opacity="0.1"/>
      <path id="Path_822" data-name="Path 822" d="M165.78,58.4V51.066L200.169,40.32S169.025,49.691,165.78,58.4Z" transform="translate(17.769 -47.993)" fill="#0c080c" opacity="0.1"/>
      <path id="Path_823" data-name="Path 823" d="M111.848,105.2v85.284L1.31,181.01V67.85Z" transform="translate(-171.254 -16.353)" fill="#adafb4"/>
      <path id="Path_824" data-name="Path 824" d="M111.848,106.027v6.706l-20.4-5.76L52.828,124.361,1.31,103.405V96.42l51.368,20.934,38.279-17.216Z" transform="translate(-171.254 16.482)" fill="#9c9ea3"/>
      <path id="Path_825" data-name="Path 825" d="M111.848,105.2S12.68,98.95,1.31,181.01V67.85Z" transform="translate(-171.254 -16.353)" fill="#0c080c" opacity="0.1"/>
      <path id="Path_826" data-name="Path 826" d="M52.74,199.8V114.514L221.416,59.75V190.856Z" transform="translate(-112.146 -25.662)" fill="#9c9ea3"/>
      <path id="Path_827" data-name="Path 827" d="M287.983,64.112l-184.6,59.922L0,87.582v-9.8L287.983,54.29Z" transform="translate(-172.76 -31.937)" fill="#cbccd0"/>
      <path id="Path_828" data-name="Path 828" d="M287.983,73.782,103.381,133.7,0,97.274,184.581,37.33Z" transform="translate(-172.76 -51.429)" fill="#adafb4"/>
      <path id="Path_829" data-name="Path 829" d="M52.74,100.4v75.805S84.979,88.085,140.109,72.03Z" transform="translate(-112.146 -11.549)" fill="#e8e8eb" opacity="0.1"/>
      <path id="Path_830" data-name="Path 830" d="M64.679,88.859v6.878S44.347,81.681,32.87,77.64Z" transform="translate(-134.983 -5.102)" fill="#0c080c" opacity="0.1"/>
      <path id="Path_831" data-name="Path 831" d="M48.75,95.725V88.4L83.139,77.65S52,87,48.75,95.725Z" transform="translate(-116.732 -5.09)" fill="#0c080c" opacity="0.1"/>
      <path id="Path_832" data-name="Path 832" d="M292.678,89.356V203.075L182.14,165.14V51.98Z" transform="translate(36.572 -34.592)" fill="#adafb4"/>
      <path id="Path_833" data-name="Path 833" d="M292.678,90.179v6.684l-20.4-5.739-38.623,17.388L182.14,87.535V80.55l51.389,20.934,38.257-17.216Z" transform="translate(36.572 -1.757)" fill="#9c9ea3"/>
      <path id="Path_834" data-name="Path 834" d="M292.678,89.333s-99.147-6.276-110.538,75.784V52Z" transform="translate(36.572 -34.569)" fill="#0c080c" opacity="0.1"/>
      <path id="Path_835" data-name="Path 835" d="M233.57,212.372V98.654L402.246,43.89V212.91Z" transform="translate(95.679 -43.89)" fill="#9c9ea3"/>
      <path id="Path_836" data-name="Path 836" d="M468.813,48.231,284.232,108.153,180.83,71.7V61.9L468.813,38.43Z" transform="translate(35.066 -50.165)" fill="#cbccd0"/>
      <path id="Path_837" data-name="Path 837" d="M468.813,57.922,284.232,117.844,180.83,81.392,365.411,21.47Z" transform="translate(35.066 -69.657)" fill="#adafb4"/>
      <path id="Path_838" data-name="Path 838" d="M233.57,84.541v75.784S265.809,72.2,320.96,56.17Z" transform="translate(95.679 -29.777)" fill="#e8e8eb" opacity="0.1"/>
      <path id="Path_839" data-name="Path 839" d="M245.509,73.011v6.878S225.177,65.832,213.7,61.77Z" transform="translate(72.843 -23.341)" fill="#0c080c" opacity="0.1"/>
      <path id="Path_840" data-name="Path 840" d="M229.58,79.877V72.526L263.969,61.78S232.847,71.151,229.58,79.877Z" transform="translate(91.094 -23.329)" fill="#0c080c" opacity="0.1"/>
      <path id="Path_841" data-name="Path 841" d="M266.826,79.946a15.174,15.174,0,0,1-7.759,13.584h0a17.2,17.2,0,0,1-2.773,1.462c-25.791,5.7-40.643.15-48.037-4.6a23.642,23.642,0,0,1-6-5.158,50.508,50.508,0,0,1-3.912-14.314,54.054,54.054,0,0,1-.709-12.058,8.018,8.018,0,0,1,.129-1.762A38.687,38.687,0,0,1,202.3,42.054c7.48-13.5,26.35-21.493,41.116-16.721A32.82,32.82,0,0,1,254,31.222a38.347,38.347,0,0,1,3.955,3.74c1.29,1.4,4.556,4.3,4.836,6.448C262.764,41.388,266.418,69.006,266.826,79.946Z" transform="translate(54.299 -66.814)" fill="#cfd0d4"/>
      <path id="Path_842" data-name="Path 842" d="M255.658,71.455a17.194,17.194,0,0,1-2.773,1.462c-25.791,5.7-40.643.15-48.037-4.6a47.627,47.627,0,0,1-4.041-25.147l15.8,1.784S205.859,81.191,255.658,71.455Z" transform="translate(57.687 -44.717)" fill="#0c080c" opacity="0.3"/>
      <path id="Path_843" data-name="Path 843" d="M214.637,50.062c0,6.942-3.03,11.628-5.7,12.659-.193,0-3.31,1.419-3.5,1.376-2.988-.623-2.579-7.5-2.579-14.035,0-5.008-1.633-8.6.344-10.746a14.207,14.207,0,0,1,5.545-1.956C211.993,37.467,214.637,43.034,214.637,50.062Z" transform="translate(59.655 -51.395)" fill="#7f8287"/>
      <ellipse id="Ellipse_96" data-name="Ellipse 96" cx="5.889" cy="12.595" rx="5.889" ry="12.595" transform="translate(258.43 -12.38)" fill="#bcbdc1"/>
      <ellipse id="Ellipse_97" data-name="Ellipse 97" cx="3.761" cy="8.038" rx="3.761" ry="8.038" transform="translate(260.558 -7.823)" fill="#7f8287"/>
      <path id="Path_844" data-name="Path 844" d="M253,69.216h0a9.59,9.59,0,0,1-1.419.86,10.747,10.747,0,0,1-2.149.86c-.838.236-1.719.451-2.6.645a95.341,95.341,0,0,1-19.322,2.386c-6.448.107-12.9-1.805-15.518-8.232a18.483,18.483,0,0,1-1.01-10.746h0a5.206,5.206,0,0,1,.279-1.247c.108-.408.215-.8.344-1.182h0a26.071,26.071,0,0,1,9.285-12.9l.774-.559a25.664,25.664,0,0,1,3.4-1.956h0a21.494,21.494,0,0,1,3.4-1.268c13.261-3.654,23.642-6.1,27.941,5.932C259.32,49.356,260.523,63.735,253,69.216Z" transform="translate(69.285 -56.535)" fill="#0f0b54"/>
      <path id="Path_845" data-name="Path 845" d="M242.635,65.626c6.19-32.648-23.148-28.113-24.265-27.941a21.494,21.494,0,0,1,2.966-1.118c11.542-3.181,20.547-5.287,24.394,5.18C248.138,48.324,249.169,60.855,242.635,65.626Z" transform="translate(78.21 -55.288)" fill="#e8e8eb" opacity="0.3"/>
      <path id="Path_846" data-name="Path 846" d="M242.409,64.521a79.264,79.264,0,0,1-16.227,1.934c-5.438,0-10.854-1.526-13.089-6.942a15.646,15.646,0,0,1-.6-10.08,21.9,21.9,0,0,1,8.791-12.423S244.537,35.291,242.409,64.521Z" transform="translate(70.807 -51.819)" fill="#07023e"/>
      <path id="Path_847" data-name="Path 847" d="M250.841,31.26C214.475,17.053,200.4,50.6,198.57,55.332a35.979,35.979,0,0,1,4.3-14.013c6.942-12.552,24.5-19.967,38.214-15.539a30.09,30.09,0,0,1,9.758,5.481Z" transform="translate(55.454 -66.186)" fill="#dadbde"/>
      <path id="Path_848" data-name="Path 848" d="M251.842,58.279A18.656,18.656,0,0,1,240.279,63.2c-10.08.774-34.818,5.008-29.037-20.031a18.484,18.484,0,0,0,1.01,10.746c2.665,6.448,9.048,8.339,15.518,8.232a95.343,95.343,0,0,0,19.236-2.3c.881-.193,1.762-.408,2.6-.645a10.745,10.745,0,0,0,2.235-.924Z" transform="translate(69.025 -44.717)" fill="#7f8287"/>
      <path id="Path_849" data-name="Path 849" d="M191.048,148.616V224.4H80.51V111.24Z" transform="translate(-80.231 33.514)" fill="#c4c6c8"/>
      <path id="Path_850" data-name="Path 850" d="M191.048,149.417v6.706l-20.4-5.739-38.644,17.366L80.51,146.8V139.81l51.368,20.934,38.257-17.216Z" transform="translate(-80.231 66.349)" fill="#b3b5b7"/>
      <path id="Path_851" data-name="Path 851" d="M191.048,148.616S91.88,142.34,80.51,224.4V111.24Z" transform="translate(-80.231 33.514)" fill="#231f20" opacity="0.1"/>
      <path id="Path_852" data-name="Path 852" d="M131.94,233.7V157.914L300.616,103.15V234.256Z" transform="translate(-21.123 24.217)" fill="#929597"/>
      <path id="Path_853" data-name="Path 853" d="M367.162,107.491,182.581,167.413,79.2,130.961v-9.8L367.162,97.69Z" transform="translate(-81.736 17.942)" fill="#e2e3e4"/>
      <path id="Path_854" data-name="Path 854" d="M367.162,117.182,182.581,177.1,79.2,140.652,263.781,80.73Z" transform="translate(-81.736 -1.55)" fill="#c4c6c8"/>
      <path id="Path_855" data-name="Path 855" d="M131.94,143.8v75.784s32.239-88.121,87.369-104.154Z" transform="translate(-21.123 38.33)" fill="#fff" opacity="0.1"/>
      <path id="Path_856" data-name="Path 856" d="M143.879,132.249v6.9s-20.354-14.056-31.809-18.118Z" transform="translate(-43.959 44.766)" fill="#231f20" opacity="0.1"/>
      <path id="Path_857" data-name="Path 857" d="M128,139.183v-7.437L162.389,121S131.138,130.457,128,139.183Z" transform="translate(-25.651 44.731)" fill="#231f20" opacity="0.1"/>
      <path id="Path_858" data-name="Path 858" d="M264.808,177.616V253.4H154.27V140.24Z" transform="translate(4.541 66.844)" fill="#c4c6c8"/>
      <path id="Path_859" data-name="Path 859" d="M264.808,178.417v6.706l-20.4-5.76-38.644,17.388L154.27,175.8V168.81l51.368,20.934L243.9,172.528Z" transform="translate(4.541 99.679)" fill="#b3b5b7"/>
      <path id="Path_860" data-name="Path 860" d="M264.808,177.616S165.64,171.34,154.27,253.4V140.24Z" transform="translate(4.541 66.844)" fill="#231f20" opacity="0.1"/>
      <path id="Path_861" data-name="Path 861" d="M205.7,262.7V186.914L374.376,132.15V263.235Z" transform="translate(63.649 57.546)" fill="#b3b5b7"/>
      <path id="Path_862" data-name="Path 862" d="M440.922,136.491,256.341,196.413,152.96,159.961v-9.8l287.962-23.47Z" transform="translate(3.035 51.271)" fill="#e2e3e4"/>
      <path id="Path_863" data-name="Path 863" d="M440.922,146.182,256.341,206.1,152.96,169.652,337.541,109.73Z" transform="translate(3.035 31.779)" fill="#c4c6c8"/>
      <path id="Path_864" data-name="Path 864" d="M205.7,172.8v75.784s32.239-88.121,87.369-104.154Z" transform="translate(63.649 71.659)" fill="#fff" opacity="0.1"/>
      <path id="Path_865" data-name="Path 865" d="M217.639,161.249v6.878s-20.354-14.056-31.809-18.1Z" transform="translate(40.812 78.095)" fill="#231f20" opacity="0.1"/>
      <path id="Path_866" data-name="Path 866" d="M201.71,168.161v-7.415L236.1,150S204.955,159.457,201.71,168.161Z" transform="translate(59.063 78.061)" fill="#231f20" opacity="0.1"/>
      <path id="Path_867" data-name="Path 867" d="M126.031,50.25s2.149,25.791,9.457,32.6,10.746,13.691,9.306,17.581S120.1,92.7,120.1,92.7l-.559-9.328Z" transform="translate(-35.374 -36.581)" fill="#1e1952"/>
      <path id="Path_868" data-name="Path 868" d="M241.332,120.83l-39.182,12.4,45.672,26.716,42.771-13.433Z" transform="translate(59.569 44.536)" fill="#fbd2db"/>
      <path id="Path_869" data-name="Path 869" d="M184.012,97.163l-4.363,16.292-24.523-4.75-7.222-1.4L125.724,74.853,122.07,69.48l7.587,3.4,10.811,4.836Z" transform="translate(-32.466 -14.48)" fill="#e6e7e8"/>
      <path id="Path_870" data-name="Path 870" d="M153.172,107.647l-7.222-1.4L123.77,73.839l3.933-1.977,2.923-1.462,7.888,6.276S143.844,95.891,153.172,107.647Z" transform="translate(-30.512 -13.422)" fill="#231f20" opacity="0.3"/>
      <path id="Path_871" data-name="Path 871" d="M226.024,85.128c1.2,7.157-.473,23.169-9.156,26.35l.8,7.522h0c-11.348,4.728-29.166,1.762-29.166,1.762s3.417-9.887,1.59-17.366c-1.182-4.771-6.233-6.448-7.759-9.887a5.352,5.352,0,0,1-.322-2.859,12.207,12.207,0,0,1,2.429-4.922s2.751-4.041,6.233,6.856a21.929,21.929,0,0,0,.8,2.149l.322.645h0c2.149,3.632,1.913-10.532,1.354-13.326-.6-3.181-2.88-6.555.387-6.856s6.641,5.352,13.648,0c6.448-4.943,13.132.215,18.914-1.7a7.869,7.869,0,0,0,1.311-.58,21.193,21.193,0,0,0-1.375,12.208Z" transform="translate(36.34 -10.526)" fill="#f9a873"/>
      <path id="Path_872" data-name="Path 872" d="M231.882,84.825l-1.311.58c-5.782,1.913-12.4-3.245-18.914,1.7-7.007,5.352-10.36-.3-13.648,0s-.989,3.675-.387,6.856.924,21.321-2.493,10.51-6.19-6.856-6.19-6.856a12.208,12.208,0,0,0-2.343,4.922c0-3.783-3.933-4.428-7.007-9.027-3.353-5.029-1.075-10.961,3.8-12.036s7.48-3.8,6.706-7.759,2.9-10.36,10.746-8.984,8.232-2.149,12.036-2.149,1.977,6.856,9.908,3.654a11.327,11.327,0,0,1,15.668,8C239.985,80.677,231.882,84.825,231.882,84.825Z" transform="translate(31.814 -22.41)" fill="#1e1952"/>
      <path id="Path_873" data-name="Path 873" d="M259.565,145.766l-13.583,3.353-45.629,6.448L176.71,105.338a39.891,39.891,0,0,1,17.818-7.866s17.818,2.966,29.166-1.762h0a20.293,20.293,0,0,0,2.816-1.419,7.413,7.413,0,0,1,1.311-.645,7.93,7.93,0,0,1,3.568-.408h.9l1.053.258h0c10.6,3.181,24.179,22.632,26.006,48.6A31.123,31.123,0,0,1,259.565,145.766Z" transform="translate(30.331 12.765)" fill="#c9cbcd"/>
      <path id="Path_874" data-name="Path 874" d="M275.586,152.515s-15.539-2.149-19.344,9.758l-18.957-17.366-8.21-2.945a80.746,80.746,0,0,0-3.138-17.409q-.8-2.773-1.805-5.352h0c-5.33-14.035-13.863-23.642-21.041-25.791,7.673,1.934,35.829,10.467,53.324,35.528Z" transform="translate(60.649 13.023)" fill="#e6e7e8"/>
      <path id="Path_875" data-name="Path 875" d="M263.369,135.862s-15.539-2.149-19.344,9.758l-18.957-17.366-8.21-2.945A80.745,80.745,0,0,0,213.72,107.9c2.321,6.1,6.641,14.787,11.262,11.241,6.9-5.266,19.709-12.1,14.615-7.974s-13.8,10.617-9.951,15.9,8.6,9.134,13.82,8.124S256.469,129.823,263.369,135.862Z" transform="translate(72.866 29.676)" fill="#231f20" opacity="0.3"/>
      <path id="Path_876" data-name="Path 876" d="M226.486,139.813c-1.569-7.952-28.951-5.459-16.442-18.548s-9.564-27.618-9.564-27.618a7.931,7.931,0,0,1,3.568-.408h.9L206,93.5h0c10.6,3.181,24.18,22.632,26.006,48.6.129,1.612.15,1.87.172,3.525L218.6,148.969S228.055,147.787,226.486,139.813Z" transform="translate(57.649 12.765)" fill="#f1f2f2"/>
      <ellipse id="Ellipse_98" data-name="Ellipse 98" cx="5.975" cy="5.975" rx="5.975" ry="5.975" transform="translate(266.963 125.045)" fill="#1e1952"/>
      <path id="Path_877" data-name="Path 877" d="M196,96.18s16.614,32.089,18.462,50.831Z" transform="translate(52.501 16.206)" fill="#1e1952"/>
      <path id="Path_878" data-name="Path 878" d="M193.711,143.526a67.727,67.727,0,0,1-15.69.58s-17.452-27.167,4.707-44.834a3.718,3.718,0,0,1,1.633-.688c2.773-.473,8.791,1.247,16.12,19.773C207.295,135.659,202.824,141.677,193.711,143.526Z" transform="translate(24.334 18.896)" fill="#e6e7e8"/>
      <path id="Path_879" data-name="Path 879" d="M193.711,143.492a67.725,67.725,0,0,1-15.69.58s-17.452-27.167,4.707-44.834a3.718,3.718,0,0,1,1.633-.688S160.011,116.153,189,140.2C190.939,141.815,192.744,142.5,193.711,143.492Z" transform="translate(24.334 18.93)" fill="#231f20" opacity="0.3"/>
      <path id="Path_880" data-name="Path 880" d="M209.482,101.08c-16.12,3.116-24.5-3.8-24.5-3.8s21.127,3.525,32-3.181a7.416,7.416,0,0,1,1.311-.645S225.6,97.878,209.482,101.08Z" transform="translate(39.836 13.069)" fill="#1e1952"/>
      <path id="Path_881" data-name="Path 881" d="M217.663,112.543h0c-11.348,4.728-29.166,1.762-29.166,1.762s3.417-9.887,1.59-17.366c-1.182-4.771-6.233-6.448-7.759-9.887a5.352,5.352,0,0,1-.322-2.859,12.207,12.207,0,0,1,2.429-4.922s2.751-4.041,6.233,6.856a21.926,21.926,0,0,0,.8,2.149l.322.645h0l3.546,6.985A16.786,16.786,0,0,0,216.825,105Z" transform="translate(36.34 -4.068)" fill="#dc9566"/>
      <path id="Path_882" data-name="Path 882" d="M266.362,136.337c-3.267.8-10.94-2.536-11.37-2.73h0s5.868,9.07,6.19,12.9a2.448,2.448,0,0,1,0,.8c-.58,3.116-9.242-8.06-10.446-11.542.666,2.988,3.482,16.829,1.633,20.2a1.332,1.332,0,0,1-.645.645c-3.009,1.311-3.955-17.474-6.3-19.494s-2.472,15.346-4.922,18.7a1.268,1.268,0,0,1-.709.537c-4.17.924.752-12.9-3.288-19.344-.709-1.118-1.247-1.655-1.7-1.784h0c-2.149-.473-1.741,8.6-4.6,9.715a.9.9,0,0,1-.666,0c-2.622-.752-1.612-14.228-1.612-14.228a15.2,15.2,0,0,1,10.746-9.285,23.083,23.083,0,0,1,8.6-.473s18.484,11.929,19.344,14.744a.387.387,0,0,1-.258.645Z" transform="translate(88.98 44.439)" fill="#f9a873"/>
      <path id="Path_883" data-name="Path 883" d="M236.726,148.124a1.268,1.268,0,0,1-.709.537c-4.17.924.752-12.9-3.288-19.344-.709-1.118-1.247-1.655-1.7-1.784a4.449,4.449,0,0,1,4.621,5.223c-.387,5.395-1.118,14.142,1.075,15.367Z" transform="translate(92.76 52.233)" fill="#dc9566"/>
      <path id="Path_884" data-name="Path 884" d="M242.912,147.663a1.333,1.333,0,0,1-.645.645c-3.009,1.311-3.955-17.474-6.3-19.494,0,0,1.633-2.515,2.45,1.633S240.333,146.287,242.912,147.663Z" transform="translate(98.438 52.844)" fill="#dc9566"/>
      <path id="Path_885" data-name="Path 885" d="M248.886,139.322c-.58,3.116-9.242-8.06-10.446-11.542h0s8.6,10.532,10.467,10.746A2.447,2.447,0,0,1,248.886,139.322Z" transform="translate(101.277 52.523)" fill="#dc9566"/>
      <path id="Path_886" data-name="Path 886" d="M252.939,130.954c-3.267.8-10.94-2.536-11.37-2.73h0l-2.149-2.794s10.575,5.029,13.82,4.986a.387.387,0,0,1-.3.537Z" transform="translate(102.403 49.823)" fill="#dc9566"/>
      <path id="Path_887" data-name="Path 887" d="M229.534,144.643h0c-2.622-.752-1.612-14.228-1.612-14.228a15.2,15.2,0,0,1,10.746-9.285S227.149,132.5,229.534,144.643Z" transform="translate(88.969 44.881)" fill="#dc9566"/>
      <path id="Path_888" data-name="Path 888" d="M179.5,122.024l-13.584,3.331L120.282,131.8,96.64,81.6a39.633,39.633,0,0,1,17.753-7.931s17.818,2.945,29.166-1.762h0a20.292,20.292,0,0,0,2.859-1.311,6.619,6.619,0,0,1,1.311-.623,7.652,7.652,0,0,1,3.568-.43h.9l1.053.258h0c10.6,3.159,24.18,22.61,26.006,48.6a31.482,31.482,0,0,1,.236,3.632Z" transform="translate(-61.693 -14.473)" fill="#c9cbcd"/>
      <path id="Path_889" data-name="Path 889" d="M146.416,116.1c-1.569-7.952-28.951-5.459-16.442-18.57s-9.564-27.6-9.564-27.6a7.652,7.652,0,0,1,3.568-.43h.9l1.053.258h0c10.6,3.159,24.18,22.61,26.006,48.6.129,1.612.172,1.848.193,3.525l-13.6,3.331S148.007,124.057,146.416,116.1Z" transform="translate(-34.374 -14.508)" fill="#f1f2f2"/>
      <ellipse id="Ellipse_99" data-name="Ellipse 99" cx="5.975" cy="5.975" rx="5.975" ry="5.975" transform="translate(94.87 74.043)" fill="#1e1952"/>
      <path id="Path_890" data-name="Path 890" d="M115.92,72.45s16.614,32.11,18.462,50.831Z" transform="translate(-39.534 -11.066)" fill="#1e1952"/>
      <path id="Path_891" data-name="Path 891" d="M113.636,119.806a68.928,68.928,0,0,1-15.69.58s-17.431-27.167,4.707-44.834a3.46,3.46,0,0,1,1.655-.688c2.751-.473,8.769,1.247,16.1,19.773C127.22,111.918,122.749,117.936,113.636,119.806Z" transform="translate(-67.685 -8.365)" fill="#e6e7e8"/>
      <path id="Path_892" data-name="Path 892" d="M113.636,119.772a68.928,68.928,0,0,1-15.69.58s-17.431-27.167,4.707-44.834a3.461,3.461,0,0,1,1.655-.688s-24.351,17.56,4.642,41.653C110.864,118.181,112.669,118.761,113.636,119.772Z" transform="translate(-67.685 -8.331)" fill="#231f20" opacity="0.3"/>
      <path id="Path_893" data-name="Path 893" d="M129.412,77.31c-16.1,3.095-24.5-3.8-24.5-3.8s21.128,3.5,32-3.2a6.621,6.621,0,0,1,1.311-.623S145.532,74.215,129.412,77.31Z" transform="translate(-52.188 -14.25)" fill="#1e1952"/>
      <path id="Path_894" data-name="Path 894" d="M243.807,160.856a15.174,15.174,0,0,1-7.759,13.583h0a15.925,15.925,0,0,1-2.773,1.44c-25.791,5.717-40.643.172-48.037-4.578a23.642,23.642,0,0,1-6-5.158,50.7,50.7,0,0,1-3.912-14.314,54.057,54.057,0,0,1-.709-12.058,8.019,8.019,0,0,1,.129-1.762,38.688,38.688,0,0,1,4.535-15.045c7.48-13.5,26.35-21.493,41.116-16.721a32.411,32.411,0,0,1,10.575,5.889,36.176,36.176,0,0,1,3.955,3.74c1.29,1.4,4.556,4.3,4.836,6.448C239.744,122.362,243.4,149.895,243.807,160.856Z" transform="translate(27.842 26.175)" fill="#e6e7e8"/>
      <path id="Path_895" data-name="Path 895" d="M232.638,152.355a15.93,15.93,0,0,1-2.773,1.44c-25.791,5.717-40.643.172-48.037-4.578a47.628,47.628,0,0,1-4.041-25.147l15.733,1.762S182.882,162.091,232.638,152.355Z" transform="translate(31.231 48.26)" fill="#231f20" opacity="0.3"/>
      <path id="Path_896" data-name="Path 896" d="M191.637,130.941c0,6.964-3.031,11.649-5.7,12.681-.193,0-3.31,1.4-3.5,1.376-2.988-.623-2.579-7.5-2.579-14.056,0-4.986-1.633-8.6.344-10.746a14.508,14.508,0,0,1,5.545-1.934C188.95,118.367,191.637,124,191.637,130.941Z" transform="translate(33.221 41.582)" fill="#96999b"/>
      <ellipse id="Ellipse_100" data-name="Ellipse 100" cx="5.889" cy="12.595" rx="5.889" ry="12.595" transform="translate(208.954 161.497)" fill="#d3d4d5"/>
      <ellipse id="Ellipse_101" data-name="Ellipse 101" cx="3.761" cy="8.038" rx="3.761" ry="8.038" transform="translate(211.082 166.054)" fill="#96999b"/>
      <path id="Path_897" data-name="Path 897" d="M229.994,150.178h0a11.862,11.862,0,0,1-1.419.86,10.747,10.747,0,0,1-2.149.86c-.838.236-1.719.451-2.6.645a95.349,95.349,0,0,1-19.344,2.3c-6.448,0-12.9-1.805-15.518-8.253a18.4,18.4,0,0,1-1.01-10.746h0a5.207,5.207,0,0,1,.279-1.247c.107-.408.215-.8.344-1.182h0a26.071,26.071,0,0,1,9.285-12.9l.774-.559a25.657,25.657,0,0,1,3.4-1.956h0a21.494,21.494,0,0,1,3.4-1.268c13.261-3.675,23.642-6.1,28.048,5.932C236.313,130.318,237.517,144.7,229.994,150.178Z" transform="translate(42.815 36.38)" fill="#262268"/>
      <path id="Path_898" data-name="Path 898" d="M219.615,146.526c6.19-32.648-23.126-28.113-24.265-27.941a19.064,19.064,0,0,1,2.966-1.118c11.542-3.181,20.547-5.287,24.394,5.18C225.118,129.224,226.149,141.755,219.615,146.526Z" transform="translate(51.754 37.689)" fill="#fff" opacity="0.3"/>
      <path id="Path_899" data-name="Path 899" d="M219.388,145.377a79.264,79.264,0,0,1-16.227,1.934c-5.438,0-10.746-1.526-13.089-6.942a15.668,15.668,0,0,1-.6-10.08,21.9,21.9,0,0,1,8.791-12.337S221.516,116.146,219.388,145.377Z" transform="translate(44.351 41.203)" fill="#1e1952"/>
      <path id="Path_900" data-name="Path 900" d="M227.821,112.139c-36.366-14.207-50.444,19.344-52.271,24.072a35.979,35.979,0,0,1,4.3-13.992c6.942-12.552,24.5-19.967,38.214-15.539A30.328,30.328,0,0,1,227.821,112.139Z" transform="translate(28.998 26.791)" fill="#f1f2f2"/>
      <path id="Path_901" data-name="Path 901" d="M228.822,139.18a18.527,18.527,0,0,1-11.542,4.9c-10.1.8-34.84,5.029-29.058-20.01a18.4,18.4,0,0,0,1.01,10.746c2.665,6.448,9.049,8.361,15.518,8.253a95.341,95.341,0,0,0,19.344-2.3c.881-.193,1.762-.408,2.6-.645A10.748,10.748,0,0,0,228.822,139.18Z" transform="translate(42.568 48.26)" fill="#96999b"/>
      <path id="Path_902" data-name="Path 902" d="M122.838,92.015l44.576,9.285,28.951-29.66L179.6,134.4l-20.01,15.926-42.921-6.147Z" transform="translate(-38.672 -11.997)" fill="#8353a2"/>
      <path id="Path_903" data-name="Path 903" d="M119.54,94.521l43.265,6.792L186.576,69.46l6.491,4.685-28.951,29.66Z" transform="translate(-35.374 -14.503)" fill="#fbbd90"/>
      <path id="Path_904" data-name="Path 904" d="M144.819,103.6l2.837-36.129L135.19,102.1Z" transform="translate(-17.388 -16.79)" fill="#fabfb6"/>
      <path id="Path_905" data-name="Path 905" d="M144.463,101.3l-7.823,49.025L156.65,134.4,173.414,71.64Z" transform="translate(-15.721 -11.997)" fill="#442773"/>
      <path id="Path_906" data-name="Path 906" d="M159.292,85.07,141.84,101.684l1.247-7.2L160.539,77.87Z" transform="translate(-9.745 -4.837)" fill="#7e93a4"/>
      <path id="Path_907" data-name="Path 907" d="M163.477,138.372a15.217,15.217,0,0,1-7.759,13.583h0a17.619,17.619,0,0,1-2.794,1.44c-25.791,5.717-40.622.172-48.015-4.578a24.567,24.567,0,0,1-6.018-5.158A49.929,49.929,0,0,1,95,129.323a53.9,53.9,0,0,1-.709-12.057,8.216,8.216,0,0,1,.129-1.762,38.687,38.687,0,0,1,4.535-15.045c7.48-13.5,26.35-21.493,41.094-16.7a32.24,32.24,0,0,1,10.6,5.889,38.209,38.209,0,0,1,3.955,3.74c1.29,1.376,4.557,4.3,4.836,6.448C159.415,99.792,163.069,127.41,163.477,138.372Z" transform="translate(-64.481 0.322)" fill="#e6e7e8"/>
      <path id="Path_908" data-name="Path 908" d="M152.306,129.865a17.62,17.62,0,0,1-2.794,1.44c-25.791,5.717-40.622.172-48.015-4.578a47.714,47.714,0,0,1-4.041-25.147l15.733,1.762S102.486,139.6,152.306,129.865Z" transform="translate(-61.091 22.412)" fill="#231f20" opacity="0.3"/>
      <path id="Path_909" data-name="Path 909" d="M111.29,108.462c0,6.964-3.031,11.649-5.7,12.681-.215,0-3.31,1.4-3.5,1.354-2.987-.6-2.579-7.48-2.579-14.035,0-4.986-1.633-8.6.322-10.746A14.658,14.658,0,0,1,105.4,95.76C108.646,95.867,111.29,101.52,111.29,108.462Z" transform="translate(-59.127 15.723)" fill="#96999b"/>
      <ellipse id="Ellipse_102" data-name="Ellipse 102" cx="5.889" cy="12.595" rx="5.889" ry="12.595" transform="translate(36.301 113.16)" fill="#d3d4d5"/>
      <ellipse id="Ellipse_103" data-name="Ellipse 103" cx="3.761" cy="8.038" rx="3.761" ry="8.038" transform="translate(38.429 117.716)" fill="#96999b"/>
      <path id="Path_910" data-name="Path 910" d="M149.63,127.668h0a9.3,9.3,0,0,1-1.419.881,11.283,11.283,0,0,1-2.149.86l-2.6.645a96.917,96.917,0,0,1-19.236,2.3c-6.448,0-12.9-1.805-15.518-8.253a18.591,18.591,0,0,1-1.032-10.746h0a4.987,4.987,0,0,1,.279-1.247c.107-.408.215-.8.344-1.182h0a26.006,26.006,0,0,1,9.306-12.9l.774-.58a25.169,25.169,0,0,1,3.4-1.934h0a22.591,22.591,0,0,1,3.417-1.268c13.261-3.654,23.642-6.082,27.941,5.932C155.906,107.894,157.11,122.187,149.63,127.668Z" transform="translate(-49.43 10.553)" fill="#262268"/>
      <path id="Path_911" data-name="Path 911" d="M139.285,124.019c6.168-32.626-23.148-28.091-24.265-27.941a18.957,18.957,0,0,1,2.966-1.1c11.52-3.181,20.547-5.309,24.394,5.158C144.788,106.739,145.819,119.248,139.285,124.019Z" transform="translate(-40.569 11.837)" fill="#fff" opacity="0.3"/>
      <path id="Path_912" data-name="Path 912" d="M139.061,122.887a82.363,82.363,0,0,1-16.227,1.934c-5.459,0-10.746-1.526-13.089-6.964a15.8,15.8,0,0,1-.623-10.08,21.944,21.944,0,0,1,8.812-12.315S141.189,93.656,139.061,122.887Z" transform="translate(-47.975 15.355)" fill="#1e1952"/>
      <path id="Path_913" data-name="Path 913" d="M147.491,89.615c-36.366-14.207-50.444,19.344-52.271,24.072a36.086,36.086,0,0,1,4.3-14.013c6.942-12.53,24.5-19.945,38.214-15.539a30.777,30.777,0,0,1,9.758,5.481Z" transform="translate(-63.325 0.892)" fill="#f1f2f2"/>
      <path id="Path_914" data-name="Path 914" d="M148.479,116.689a18.4,18.4,0,0,1-11.542,4.9c-10.08.774-34.818,5.029-29.058-20.01a18.591,18.591,0,0,0,1.032,10.746c2.644,6.448,9.049,8.339,15.518,8.253a96.912,96.912,0,0,0,19.236-2.3l2.6-.645A11.281,11.281,0,0,0,148.479,116.689Z" transform="translate(-49.762 22.412)" fill="#96999b"/>
      <path id="Path_915" data-name="Path 915" d="M161.993,90.551c0,3.052-6.9,15.84-7.931,17.452s-3.245,2.45-6.448,3.159-2.859-14.83-2.149-17.366S159.07,85.78,159.07,85.78a6.448,6.448,0,0,1,2.923,4.771Z" transform="translate(-6.126 4.254)" fill="#dc9566"/>
      <path id="Path_916" data-name="Path 916" d="M145.3,101.032s-1.225-1.483,2.644-4.428,8.382-6.448,8.382-6.448l2.859-10.746s-.172,13.046-.279,13.455S145.3,101.032,145.3,101.032Z" transform="translate(-5.982 -3.067)" fill="#f9a873"/>
      <path id="Path_917" data-name="Path 917" d="M154.475,97.746a6.448,6.448,0,0,0-2.945-4.771l.279-13.455S155.162,94.8,154.475,97.746Z" transform="translate(1.392 -2.941)" fill="#fab8a6"/>
      <path id="Path_918" data-name="Path 918" d="M160.614,62.561c-.989.15-1.719.3-2.364.451-2.73.666-3.525,1.4-15.174,4.879-14.293,4.3-13.24-3.976-15.389-7.308s-1.053,2.73-.129,12.767-2.751,11.757-4.17,7.028-7.716-11.413-8.941-3.052,3.159,7.737,5.631,12.9,0,21.321,0,21.321c-3.2,4.6-25.985,17.753-25.985,17.753s-3.267-3.783-2.149-17.753,12.53-6.792,15.324-36.753c.817-8.6-6.792-24.975,17.194-35.657S164.827,53.6,164.827,53.6,165.945,61.636,160.614,62.561Z" transform="translate(-67.357 -52.394)" fill="#1e1952"/>
      <path id="Path_919" data-name="Path 919" d="M139.521,87.422l.516,8.6c-14.271,11.026-32,3.2-32,3.2s2.472-16.034,0-21.321S101.178,73.279,102.4,65s7.5-1.676,8.941,3.052A6.3,6.3,0,0,0,111.8,69.2h0c1.612,3.159,4.535.9,3.718-8.189-.924-10.037-1.913-15.991.129-12.767s1.1,11.563,15.389,7.308c11.649-3.482,12.444-4.3,15.174-4.879-.129,1.741-.129,10.9,0,21.321C146.249,78.631,139.521,87.422,139.521,87.422Z" transform="translate(-55.312 -39.901)" fill="#f9a873"/>
      <path id="Path_920" data-name="Path 920" d="M140.037,88.692c-14.271,11.026-32,3.2-32,3.2s2.472-16.034,0-21.321-6.856-4.621-5.631-12.9,7.5-1.676,8.941,3.052a6.3,6.3,0,0,0,.451,1.139h0c-.881,11.413,2.493,13.626,3.5,14.787,12.315,12.9,24.222,3.568,24.222,3.568Z" transform="translate(-55.312 -32.574)" fill="#dc9566"/>
      <path id="Path_921" data-name="Path 921" d="M158.44,93.391a6.556,6.556,0,0,1,.86-1.741Z" transform="translate(9.333 11)" fill="#1e1952"/>
      <path id="Path_922" data-name="Path 922" d="M172.973,93.4a7.5,7.5,0,0,1-2.773,5.588Z" transform="translate(22.849 13.011)" fill="#1e1952"/>
      <path id="Path_923" data-name="Path 923" d="M195.039,98.4l-2.773,5.588-13.111,26.243L151,128.469,166.991,96.4l.86-1.741c2.149-3.31,7.179-5.61,12.9-5.61C188.7,88.944,195.039,93.242,195.039,98.4Z" transform="translate(0.783 8.011)" fill="#2f2e6b"/>
      <ellipse id="Ellipse_104" data-name="Ellipse 104" cx="14.185" cy="9.371" rx="14.185" ry="9.371" transform="translate(151.546 128.85)" fill="#1e1952"/>
      <rect id="Rectangle_105" data-name="Rectangle 105" width="1.655" height="30.477" transform="translate(182.511 98.97) rotate(24.09)" fill="#1e1952"/>
      <path id="Path_924" data-name="Path 924" d="M206.737,57.44,80.38,182.034V315.913H460.632L494.118,32.1Z" transform="translate(-80.38 -57.44)" opacity="0.5" fill="url(#linear-gradient)"/>
    </g>
  </g>
</svg>
