<svg xmlns="http://www.w3.org/2000/svg" width="112.4" height="40.958" viewBox="0 0 112.4 40.958">
  <g id="Group_418" data-name="Group 418" transform="translate(-0.001)">
    <g id="Ellipse_12" data-name="Ellipse 12" transform="translate(71.6 0)" fill="none" stroke="#fff" stroke-width="1">
      <circle cx="20.4" cy="20.4" r="20.4" stroke="none"/>
      <circle cx="20.4" cy="20.4" r="19.9" fill="none"/>
    </g>
    <g id="Ellipse_13" data-name="Ellipse 13" transform="translate(0 0.158)" fill="none" stroke="#fff" stroke-width="1">
      <circle cx="20.4" cy="20.4" r="20.4" stroke="none"/>
      <circle cx="20.4" cy="20.4" r="19.9" fill="none"/>
    </g>
    <g id="Group_416" data-name="Group 416" transform="translate(-208.622 -4254.156)">
      <path id="Path_2591" data-name="Path 2591" d="M120.929,191.366a.923.923,0,0,1-.532-.266l-5.322-4.258a1.225,1.225,0,0,1-.266-.8.63.63,0,0,1,.266-.532l5.322-4.524a.715.715,0,0,1,1.064,0,1.051,1.051,0,0,1,0,1.331l-4.524,3.725,4.524,3.992a.715.715,0,0,1,0,1.064A.627.627,0,0,1,120.929,191.366Zm0,0" transform="translate(175.191 4088.597)" fill="#fff"/>
      <path id="Path_2592" data-name="Path 2592" d="M250.606,191.366a.627.627,0,0,1-.532-.266.715.715,0,0,1,0-1.064l4.524-3.992-4.524-3.726a1.05,1.05,0,0,1,0-1.33.715.715,0,0,1,1.064,0l5.322,4.524a.629.629,0,0,1,.266.532,1.224,1.224,0,0,1-.266.8l-5.322,4.258A.922.922,0,0,1,250.606,191.366Zm0,0" transform="translate(55.897 4088.597)" fill="#fff"/>
      <path id="Path_2593" data-name="Path 2593" d="M190.223,170.146a1.991,1.991,0,0,1-.266,0,.866.866,0,0,1-.532-1.064l3.193-15.434c.093-.439.359-.891.8-.8a1.05,1.05,0,0,1,.8,1.064l-3.193,15.434C190.941,169.731,190.6,170.146,190.223,170.146Zm0,0" transform="translate(109.36 4113.275)" fill="#fff"/>
    </g>
    <g id="vector" transform="translate(10.069 10.276)">
      <path id="Path_2582" data-name="Path 2582" d="M21.084,6.41l-1.067-.934a.967.967,0,0,0-1.334,0l-.133.133a8.152,8.152,0,0,0-4.535-1.467h0a8.884,8.884,0,0,0-3.068.534l1.868-1.734a1.376,1.376,0,0,0,.667.133,2.014,2.014,0,0,0,1.334-.534,1.6,1.6,0,0,0,.4-1.2,1.587,1.587,0,0,0-.4-1.2,2.044,2.044,0,0,0-1.334-.534,1.7,1.7,0,0,0-1.2.534,1.609,1.609,0,0,0-.4,1.2,2.023,2.023,0,0,0,.133.8l-3.335,3.2V5.209a.95.95,0,0,0-.667-.267.668.668,0,0,0-.534.267L6.411,6.276a.967.967,0,0,0,0,1.334l.133.133-3.335,3.2a1.376,1.376,0,0,0-.667-.133,1.7,1.7,0,0,0-1.2.534,1.692,1.692,0,0,0,0,2.4,1.713,1.713,0,0,0,1.2.534,1.7,1.7,0,0,0,1.2-.534,1.824,1.824,0,0,0,.4-2l1.734-1.734a8.1,8.1,0,0,0-.534,2.935,8.057,8.057,0,0,0,1.334,4.535l-.133.267a.962.962,0,0,0,0,1.334l1.067.934a.668.668,0,0,0,.534.267.95.95,0,0,0,.667-.267l.934-.934a.962.962,0,0,0,0-1.334l-.934-1.067a.95.95,0,0,0-.667-.267.668.668,0,0,0-.534.267h0a7.251,7.251,0,0,1,0-7.87,1.35,1.35,0,0,0,.4.133.95.95,0,0,0,.667-.267L9.612,7.61a1.093,1.093,0,0,0,.267-1.067,7.212,7.212,0,0,1,7.87-.133h0a.962.962,0,0,0,0,1.334l.934,1.067a.967.967,0,0,0,1.334,0l1.067-1.067A.958.958,0,0,0,21.084,6.41ZM8.812,18.415l-.667.667-.667-.667.667-.8ZM13.08.94a.667.667,0,0,1,.8,0c.105.106.267.248.267.4s-.161.294-.267.4-.248.267-.4.267-.295-.161-.4-.267h0a.538.538,0,0,1-.133-.4A.544.544,0,0,1,13.08.94ZM2.942,12.946a.536.536,0,0,1-.4.133.536.536,0,0,1-.4-.133.562.562,0,0,1,0-.8.536.536,0,0,1,.4-.133.536.536,0,0,1,.4.133A.562.562,0,0,1,2.942,12.946ZM8.011,7.61l-.667-.667.667-.667.267.267h0l.4.4Zm11.339.267-.667-.8.667-.667.8.667Z" transform="translate(-0.842 0.394)" fill="#fff"/>
    </g>
  </g>
</svg>
