<svg id="job_coloring" xmlns="http://www.w3.org/2000/svg" xmlns:xlink="http://www.w3.org/1999/xlink" width="380.252" height="258.473" viewBox="0 0 380.252 258.473">
  <defs>
    <clipPath id="clip-path">
      <path id="Path_1017" data-name="Path 1017" d="M16.506.91h347.54A16.356,16.356,0,0,1,380.4,17.266V259.383H.15V17.266A16.356,16.356,0,0,1,16.506.91Z" transform="translate(-0.15 -0.91)" fill="none"/>
    </clipPath>
    <linearGradient id="linear-gradient" x1="0.788" y1="1.133" x2="0.027" y2="-0.539" gradientUnits="objectBoundingBox">
      <stop offset="0" stop-opacity="0"/>
      <stop offset="1" stop-opacity="0.251"/>
    </linearGradient>
  </defs>
  <g id="Layer_4" data-name="Layer 4" transform="translate(0 0)">
    <g id="Group_59" data-name="Group 59" clip-path="url(#clip-path)">
      <path id="Path_926" data-name="Path 926" d="M174.436,0H0V243.944l174.436-82.661Z" transform="translate(-0.322 -1.956)" fill="#e4e5e6"/>
      <path id="Path_927" data-name="Path 927" d="M81.16,161.282V0H287.3V236.013Z" transform="translate(92.954 -1.956)" fill="#b6b8ba"/>
      <path id="Path_928" data-name="Path 928" d="M36.69,167.059l88.4-15.625.086-107.163L36.754,74.639Z" transform="translate(41.845 48.923)" fill="#929597"/>
      <path id="Path_929" data-name="Path 929" d="M380.574,173.735V149.771L174.436,75.04,0,157.7v17.022Z" transform="translate(-0.322 84.286)" fill="#5c5e60"/>
      <path id="Path_930" data-name="Path 930" d="M166.7,176.008,84.77,154.386V47.76l81.931,30.2Z" transform="translate(97.103 52.934)" fill="#929597"/>
      <path id="Path_931" data-name="Path 931" d="M120.85,108.117,87.3,95.544V51.72l69.336,25.534Z" transform="translate(100.01 57.485)" fill="#a5a7a9"/>
      <path id="Path_932" data-name="Path 932" d="M158.355,66.95v80.082L87.3,126.27V84.725l34.174,12.788Z" transform="translate(100.01 74.989)" fill="#a5a7a9"/>
      <path id="Path_933" data-name="Path 933" d="M79.066,103.717l33.572-12.573V47.32L43.28,72.875Z" transform="translate(49.419 52.428)" fill="#a5a7a9"/>
      <path id="Path_934" data-name="Path 934" d="M42.49,62.55v80.082l71.055-20.762V80.325L79.372,93.134Z" transform="translate(48.511 69.932)" fill="#a5a7a9"/>
      <path id="Path_935" data-name="Path 935" d="M139.945,56.6l-28.5-23.062L23.84,60.879,51.523,86.971Z" transform="translate(27.077 36.591)" fill="#f8f8f9"/>
      <path id="Path_936" data-name="Path 936" d="M23.9,46.26,51.58,72.352l-.064,92.419L23.79,146.245Z" transform="translate(27.019 51.21)" fill="#c4c6c8"/>
      <path id="Path_937" data-name="Path 937" d="M71.931,149.487,6.12,124.276,23.658,82.73l65.811,25.211Z" transform="translate(6.711 93.124)" fill="#b6b8ba"/>
      <path id="Path_938" data-name="Path 938" d="M119.724,205.959,3.19,162.372V102.6l116.534,43.587Z" transform="translate(3.344 115.961)" fill="#929597"/>
      <path id="Path_939" data-name="Path 939" d="M224.33,136.553,14.732,57.33l-1.462,50.4,209.62,79.223Z" transform="translate(14.929 63.933)" fill="#e2e3e4"/>
      <path id="Path_940" data-name="Path 940" d="M13.95,60.766l209.6,79.223,11.477-6.6L28.071,54.34Z" transform="translate(15.71 60.496)" fill="#f8f8f9"/>
      <path id="Path_941" data-name="Path 941" d="M125.533,91.12l.172,64.135H109.22l3.4-7.136,1.44-50.4Z" transform="translate(125.203 102.767)" fill="#c4c6c8"/>
      <path id="Path_942" data-name="Path 942" d="M71.677,119.124,17.15,98.383V61.91L71.677,82.651Z" transform="translate(19.388 69.196)" fill="#1e1952"/>
      <path id="Path_943" data-name="Path 943" d="M113.547,134.792,59.02,114.073V77.6l54.527,20.719Z" transform="translate(67.509 87.229)" fill="#1e1952"/>
      <ellipse id="Ellipse_105" data-name="Ellipse 105" cx="1.741" cy="2.558" rx="1.741" ry="2.558" transform="translate(97.038 161.359) rotate(-20.13)" fill="#1e1952"/>
      <ellipse id="Ellipse_106" data-name="Ellipse 106" cx="1.741" cy="2.558" rx="1.741" ry="2.558" transform="translate(106.315 164.728) rotate(-20.13)" fill="#1e1952"/>
      <ellipse id="Ellipse_107" data-name="Ellipse 107" cx="1.741" cy="2.558" rx="1.741" ry="2.558" transform="translate(116.46 168.406) rotate(-20.13)" fill="#1e1952"/>
      <ellipse id="Ellipse_108" data-name="Ellipse 108" cx="1.741" cy="2.558" rx="1.741" ry="2.558" transform="translate(96.815 170.726) rotate(-20.13)" fill="#1e1952"/>
      <ellipse id="Ellipse_109" data-name="Ellipse 109" cx="1.741" cy="2.558" rx="1.741" ry="2.558" transform="matrix(0.94, -0.34, 0.34, 0.94, 105.524, 174.745)" fill="#1e1952"/>
      <ellipse id="Ellipse_110" data-name="Ellipse 110" cx="1.741" cy="2.558" rx="1.741" ry="2.558" transform="translate(116.279 177.787) rotate(-20.13)" fill="#1e1952"/>
      <ellipse id="Ellipse_111" data-name="Ellipse 111" cx="1.741" cy="2.558" rx="1.741" ry="2.558" transform="translate(96.627 180.087) rotate(-20.13)" fill="#1e1952"/>
      <ellipse id="Ellipse_112" data-name="Ellipse 112" cx="1.741" cy="2.558" rx="1.741" ry="2.558" transform="translate(105.925 183.448) rotate(-20.13)" fill="#1e1952"/>
      <ellipse id="Ellipse_113" data-name="Ellipse 113" cx="1.741" cy="2.558" rx="1.741" ry="2.558" transform="translate(116.077 187.146) rotate(-20.13)" fill="#1e1952"/>
      <path id="Path_944" data-name="Path 944" d="M81.247,37.9,55.671,46.9,53.5,45.117,79.1,36.09Z" transform="translate(61.165 39.522)" fill="#1e1952"/>
      <path id="Path_945" data-name="Path 945" d="M65.588,42.184l-8.167,2.88L55.25,43.28l8.167-2.88Z" transform="translate(63.176 44.475)" fill="#1e1952"/>
      <path id="Path_946" data-name="Path 946" d="M65.409,46.838,62.035,48.02,57.07,43.894l3.374-1.2Z" transform="translate(65.267 47.107)" fill="#1e1952"/>
      <path id="Path_947" data-name="Path 947" d="M67.661,46.037l-3.374,1.182L59.3,43.092l3.374-1.182Z" transform="translate(67.83 46.211)" fill="#1e1952"/>
      <ellipse id="Ellipse_114" data-name="Ellipse 114" cx="1.032" cy="1.827" rx="1.032" ry="1.827" transform="translate(130.428 84.922) rotate(-81.75)" fill="#1e1952"/>
      <ellipse id="Ellipse_115" data-name="Ellipse 115" cx="1.032" cy="1.827" rx="1.032" ry="1.827" transform="translate(135.997 82.958) rotate(-81.75)" fill="#1e1952"/>
      <ellipse id="Ellipse_116" data-name="Ellipse 116" cx="1.032" cy="1.827" rx="1.032" ry="1.827" transform="translate(141.745 80.941) rotate(-81.75)" fill="#1e1952"/>
      <ellipse id="Ellipse_117" data-name="Ellipse 117" cx="1.032" cy="1.827" rx="1.032" ry="1.827" transform="translate(134.33 88.155) rotate(-81.75)" fill="#1e1952"/>
      <ellipse id="Ellipse_118" data-name="Ellipse 118" cx="1.032" cy="1.827" rx="1.032" ry="1.827" transform="translate(139.875 86.19) rotate(-81.75)" fill="#1e1952"/>
      <ellipse id="Ellipse_119" data-name="Ellipse 119" cx="1.032" cy="1.827" rx="1.032" ry="1.827" transform="translate(145.668 84.155) rotate(-81.75)" fill="#1e1952"/>
      <path id="Path_948" data-name="Path 948" d="M124.438,109.77,88.76,96.036V91.63l35.678,13.734Z" transform="translate(101.688 103.353)" fill="#1e1952"/>
      <path id="Path_949" data-name="Path 949" d="M100.173,103.991,88.76,99.606V95.2l11.413,4.385Z" transform="translate(101.688 107.456)" fill="#1e1952"/>
      <path id="Path_950" data-name="Path 950" d="M93.467,110.882l-4.707-1.805V98.91l4.707,1.805Z" transform="translate(101.688 111.72)" fill="#1e1952"/>
      <path id="Path_951" data-name="Path 951" d="M96.587,112.082l-4.707-1.827V100.11l4.707,1.805Z" transform="translate(105.274 113.099)" fill="#1e1952"/>
      <ellipse id="Ellipse_120" data-name="Ellipse 120" cx="1.762" cy="2.579" rx="1.762" ry="2.579" transform="translate(205.539 210.436) rotate(-29.42)" fill="#1e1952"/>
      <ellipse id="Ellipse_121" data-name="Ellipse 121" cx="1.762" cy="2.579" rx="1.762" ry="2.579" transform="translate(213.295 213.428) rotate(-29.42)" fill="#1e1952"/>
      <ellipse id="Ellipse_122" data-name="Ellipse 122" cx="1.762" cy="2.579" rx="1.762" ry="2.579" transform="translate(221.341 216.528) rotate(-29.42)" fill="#1e1952"/>
      <ellipse id="Ellipse_123" data-name="Ellipse 123" cx="1.762" cy="2.579" rx="1.762" ry="2.579" transform="translate(205.544 218.413) rotate(-29.42)" fill="#1e1952"/>
      <ellipse id="Ellipse_124" data-name="Ellipse 124" cx="1.762" cy="2.579" rx="1.762" ry="2.579" transform="translate(213.29 221.387) rotate(-29.42)" fill="#1e1952"/>
      <ellipse id="Ellipse_125" data-name="Ellipse 125" cx="1.762" cy="2.579" rx="1.762" ry="2.579" transform="translate(221.336 224.487) rotate(-29.42)" fill="#1e1952"/>
      <path id="Path_952" data-name="Path 952" d="M234.475,160.037,24.79,80.75,3.19,127.712l209.6,79.244Z" transform="translate(3.344 90.849)" fill="#c4c6c8"/>
      <path id="Path_953" data-name="Path 953" d="M68.782,145.558,8.8,122.56l-.946-1.805L24.786,84.69l59.062,21.149.924,1.827Z" transform="translate(8.7 95.377)" fill="#abadaf"/>
      <path id="Path_954" data-name="Path 954" d="M67.858,144.708,7.85,121.732,23.841,83.84l60.008,22.976Z" transform="translate(8.7 94.4)" fill="#b6b8ba"/>
      <path id="Path_955" data-name="Path 955" d="M111.8,164.738,45.99,139.527,63.528,97.96l65.811,25.211Z" transform="translate(52.533 110.628)" fill="#b6b8ba"/>
      <path id="Path_956" data-name="Path 956" d="M59.456,105.9,17.18,90.163l.752-1.633,42.255,15.733Z" transform="translate(19.422 99.79)" fill="#1e1952"/>
      <path id="Path_957" data-name="Path 957" d="M27.779,98.616,23.33,96.961l3.353-7.351,4.449,1.655Z" transform="translate(26.49 101.032)" fill="#1e1952"/>
      <path id="Path_958" data-name="Path 958" d="M57.1,111.026,14.85,95.293l.731-1.633,42.276,15.733Z" transform="translate(16.745 105.686)" fill="#1e1952"/>
      <path id="Path_959" data-name="Path 959" d="M32.049,106.206,27.6,104.551,30.953,97.2,35.4,98.855Z" transform="translate(31.398 109.755)" fill="#1e1952"/>
      <path id="Path_960" data-name="Path 960" d="M54.787,116.156,12.51,100.423l.752-1.633,42.255,15.733Z" transform="translate(14.055 111.582)" fill="#1e1952"/>
      <path id="Path_961" data-name="Path 961" d="M18.021,106.976l-4.471-1.655L16.9,97.97l4.449,1.655Z" transform="translate(15.25 110.64)" fill="#1e1952"/>
      <path id="Path_962" data-name="Path 962" d="M109.5,162.394,47.99,138.816,64.389,100,125.9,123.556Z" transform="translate(54.832 112.973)" fill="#e2e3e4"/>
      <ellipse id="Ellipse_126" data-name="Ellipse 126" cx="2.192" cy="1.934" rx="2.192" ry="1.934" transform="matrix(0.649, -0.761, 0.761, 0.649, 163.073, 239.988)" fill="#1e1952"/>
      <ellipse id="Ellipse_127" data-name="Ellipse 127" cx="2.192" cy="1.934" rx="2.192" ry="1.934" transform="matrix(0.649, -0.761, 0.761, 0.649, 149.916, 235.005)" fill="#1e1952"/>
      <ellipse id="Ellipse_128" data-name="Ellipse 128" cx="2.192" cy="1.934" rx="2.192" ry="1.934" transform="matrix(0.649, -0.761, 0.761, 0.649, 136.757, 229.97)" fill="#1e1952"/>
      <ellipse id="Ellipse_129" data-name="Ellipse 129" cx="2.192" cy="1.934" rx="2.192" ry="1.934" transform="matrix(0.649, -0.761, 0.761, 0.649, 123.563, 224.973)" fill="#1e1952"/>
      <ellipse id="Ellipse_130" data-name="Ellipse 130" cx="2.192" cy="1.934" rx="2.192" ry="1.934" transform="matrix(0.649, -0.761, 0.761, 0.649, 158.697, 249.451)" fill="#1e1952"/>
      <ellipse id="Ellipse_131" data-name="Ellipse 131" cx="2.192" cy="1.934" rx="2.192" ry="1.934" transform="matrix(0.649, -0.761, 0.761, 0.649, 145.524, 244.454)" fill="#1e1952"/>
      <ellipse id="Ellipse_132" data-name="Ellipse 132" cx="2.192" cy="1.934" rx="2.192" ry="1.934" transform="matrix(0.649, -0.761, 0.761, 0.649, 132.346, 239.471)" fill="#1e1952"/>
      <ellipse id="Ellipse_133" data-name="Ellipse 133" cx="2.192" cy="1.934" rx="2.192" ry="1.934" transform="matrix(0.649, -0.761, 0.761, 0.649, 119.187, 234.436)" fill="#1e1952"/>
      <path id="Path_963" data-name="Path 963" d="M89.117,130.58,55.33,117.749l2-4.3,33.787,12.831Z" transform="translate(63.268 128.43)" fill="#1e1952"/>
      <path id="Path_964" data-name="Path 964" d="M32.589,77.669l-12.681-4.75a1.268,1.268,0,0,1-.838-1.01V66.621c0-.365.387-.537.838-.365l12.681,4.75a1.225,1.225,0,0,1,.838.989v5.287C33.427,77.669,33.062,77.84,32.589,77.669Z" transform="translate(21.595 74.114)" fill="#fff"/>
      <path id="Path_965" data-name="Path 965" d="M40.1,80.318l-.322-.129A2.558,2.558,0,0,1,38.04,78.04V74.322c0-.8.774-1.139,1.741-.774H40.1A2.622,2.622,0,0,1,41.844,75.7v3.761C41.758,80.318,40.963,80.684,40.1,80.318Z" transform="translate(43.397 82.404)" fill="#fff"/>
      <path id="Path_966" data-name="Path 966" d="M37.333,79.3l-.322-.129a2.6,2.6,0,0,1-1.741-2.149V73.306c0-.8.774-1.139,1.741-.8l.322.129a2.6,2.6,0,0,1,1.741,2.149v3.783C38.988,79.3,38.3,79.668,37.333,79.3Z" transform="translate(40.213 81.227)" fill="#fff"/>
      <path id="Path_967" data-name="Path 967" d="M19.18,84.772l44.254,16.592S62.166,79.27,55.675,82.193s-9.543,4.127-12.7-3.718-4.514-2.687-5.545,3.546c-2.02,12.1-2.859-1.934-5.18-2.945s-2.6,6.964-4.3,6.448-1.419-6-2.536-6.448C23.092,78.131,24.747,86.578,19.18,84.772Z" transform="translate(21.721 83.667)" fill="#fff" opacity="0.3"/>
      <path id="Path_968" data-name="Path 968" d="M23.27,85.474l30.391,11.37S52.8,79.65,48.309,82.207s-6.448,3.568-8.7-2.45-3.095-1.934-3.826,2.966C34.4,92.2,33.823,81.3,32.233,80.574s-1.784,5.524-2.88,5.309-.967-4.621-1.741-4.943C25.914,80.165,26.988,86.7,23.27,85.474Z" transform="translate(26.422 86.254)" fill="#fff"/>
      <path id="Path_969" data-name="Path 969" d="M71.126,88.1,62.1,84.747a.86.86,0,0,1-.559-.709V80.771c0-.279.258-.408.559-.3L71.126,83.8a.86.86,0,0,1,.559.709V87.67A.579.579,0,0,1,71.126,88.1Z" transform="translate(70.405 90.484)" fill="#fff"/>
      <path id="Path_970" data-name="Path 970" d="M67.066,92.226,61.8,90.27v8.554l5.266,1.956Z" transform="translate(70.704 101.79)" fill="#fff" opacity="0.3"/>
      <path id="Path_971" data-name="Path 971" d="M70.727,89.227,65.44,87.25V105.2l5.287,1.977Z" transform="translate(74.887 98.319)" fill="#fff"/>
      <path id="Path_972" data-name="Path 972" d="M74.047,93.306,68.76,91.35v11.778l5.287,1.977Z" transform="translate(78.703 103.031)" fill="#fff" opacity="0.3"/>
      <path id="Path_973" data-name="Path 973" d="M77.346,93.456,72.08,91.5v14.1l5.266,1.977Z" transform="translate(82.518 103.204)" fill="#fff"/>
      <path id="Path_974" data-name="Path 974" d="M80.677,98.356,75.39,96.4v6.233l5.287,1.956Z" transform="translate(86.322 108.835)" fill="#fff" opacity="0.3"/>
      <path id="Path_975" data-name="Path 975" d="M83.976,93.806,78.71,91.85v18.656l5.266,1.956Z" transform="translate(90.138 103.606)" fill="#fff"/>
      <path id="Path_976" data-name="Path 976" d="M84.77,60.483,110.239,36.69l82.146,27.876L166.7,90.68Z" transform="translate(97.103 40.211)" fill="#f8f8f9"/>
      <path id="Path_977" data-name="Path 977" d="M148.574,49.66,122.89,75.774v98.05l25.684-18.075Z" transform="translate(140.914 55.118)" fill="#c4c6c8"/>
      <ellipse id="Ellipse_134" data-name="Ellipse 134" cx="1.505" cy="1.268" rx="1.505" ry="1.268" transform="translate(269.688 109.638) rotate(-9.5)" fill="#1e1952"/>
      <ellipse id="Ellipse_135" data-name="Ellipse 135" cx="1.505" cy="1.268" rx="1.505" ry="1.268" transform="translate(260.135 105.912) rotate(-9.5)" fill="#1e1952"/>
      <ellipse id="Ellipse_136" data-name="Ellipse 136" cx="1.505" cy="1.268" rx="1.505" ry="1.268" transform="translate(250.607 102.229) rotate(-9.5)" fill="#1e1952"/>
      <ellipse id="Ellipse_137" data-name="Ellipse 137" cx="1.505" cy="1.268" rx="1.505" ry="1.268" transform="translate(241.058 98.524) rotate(-9.5)" fill="#1e1952"/>
      <ellipse id="Ellipse_138" data-name="Ellipse 138" cx="1.505" cy="1.268" rx="1.505" ry="1.268" transform="translate(266.371 115.18) rotate(-9.5)" fill="#1e1952"/>
      <ellipse id="Ellipse_139" data-name="Ellipse 139" cx="1.505" cy="1.268" rx="1.505" ry="1.268" transform="translate(256.822 111.497) rotate(-9.5)" fill="#1e1952"/>
      <ellipse id="Ellipse_140" data-name="Ellipse 140" cx="1.505" cy="1.268" rx="1.505" ry="1.268" transform="translate(247.294 107.793) rotate(-9.5)" fill="#1e1952"/>
      <ellipse id="Ellipse_141" data-name="Ellipse 141" cx="1.505" cy="1.268" rx="1.505" ry="1.268" transform="translate(237.766 104.085) rotate(-9.5)" fill="#1e1952"/>
      <path id="Path_978" data-name="Path 978" d="M134.8,64.024l-24.48-9.478,1.5-2.536,24.48,9.478Z" transform="translate(126.467 57.818)" fill="#1e1952"/>
      <path id="Path_979" data-name="Path 979" d="M123.153,68.537,88.27,55.964,105.314,38.92,140.2,51.493Z" transform="translate(101.125 42.774)" fill="#1e1952"/>
      <path id="Path_980" data-name="Path 980" d="M109.345,46.691,97.2,42.521c-.623-.215-.838-.666-.494-.989l.322-.322a1.848,1.848,0,0,1,1.741-.236l12.143,4.3c.623.215.838.645.494.989l-.322.322A1.891,1.891,0,0,1,109.345,46.691Z" transform="translate(110.634 44.998)" fill="#fff"/>
      <path id="Path_981" data-name="Path 981" d="M92.282,51.931c-.129,0-.193-.129-.129-.193l8.447-8.275a.408.408,0,0,1,.365,0,.136.136,0,0,1,.129.215l-8.447,8.275a.408.408,0,0,1-.365-.022Z" transform="translate(105.559 47.946)" fill="#fff"/>
      <path id="Path_982" data-name="Path 982" d="M94.74,52.771c-.15,0-.215-.129-.129-.193l8.425-8.275a.451.451,0,0,1,.387,0c.129,0,.193.15.129.215L95.1,52.793A.408.408,0,0,1,94.74,52.771Z" transform="translate(108.368 48.911)" fill="#fff" opacity="0.3"/>
      <path id="Path_983" data-name="Path 983" d="M97.193,53.611,97,53.482l8.6-8.339a.408.408,0,0,1,.365,0c.129,0,.193.15.129.215l-8.447,8.275a.365.365,0,0,1-.451-.021Z" transform="translate(111.159 49.877)" fill="#fff"/>
      <path id="Path_984" data-name="Path 984" d="M99.612,54.408c-.129,0-.193-.129-.129-.193l8.447-8.189a.365.365,0,0,1,.365,0c.15,0,.193.129.129.193l-8.447,8.167A.344.344,0,0,1,99.612,54.408Z" transform="translate(113.984 50.885)" fill="#fff" opacity="0.3"/>
      <path id="Path_985" data-name="Path 985" d="M102.084,55.318a.136.136,0,0,1-.129-.215l8.447-8.275a.344.344,0,0,1,.365,0c.129,0,.193.129.129.193L102.45,55.3A.408.408,0,0,1,102.084,55.318Z" transform="translate(116.821 51.803)" fill="#fff"/>
      <path id="Path_986" data-name="Path 986" d="M96.342,46.21,94.3,45.522l1.633-1.612L98,44.619Z" transform="translate(108.055 48.509)" fill="#fff"/>
      <path id="Path_987" data-name="Path 987" d="M97.852,48.021l-2.042-.709L97.443,45.7l2.042.709Z" transform="translate(109.791 50.566)" fill="#fff"/>
      <path id="Path_988" data-name="Path 988" d="M101.642,47.53,99.6,46.842l1.633-1.612,2.042.688Z" transform="translate(114.147 50.026)" fill="#fff"/>
      <path id="Path_989" data-name="Path 989" d="M101.593,50.841l-2.063-.709,1.655-1.612,2.042.709Z" transform="translate(114.066 53.807)" fill="#fff"/>
      <path id="Path_990" data-name="Path 990" d="M104.8,50.921l-2.042-.709,1.633-1.612,2.042.709Z" transform="translate(117.778 53.899)" fill="#fff"/>
      <ellipse id="Ellipse_142" data-name="Ellipse 142" cx="1.118" cy="1.977" rx="1.118" ry="1.977" transform="translate(229.015 95.717) rotate(-87.16)" fill="#fff"/>
      <path id="Path_991" data-name="Path 991" d="M90.794,52.537,75.835,40.63,29.84,56.212,44.369,69.731Z" transform="translate(33.972 44.74)" fill="#1e1952"/>
      <rect id="Rectangle_106" data-name="Rectangle 106" width="5.287" height="84.316" rx="1.15" transform="translate(271.369 157.672)" fill="#929597"/>
      <rect id="Rectangle_107" data-name="Rectangle 107" width="5.287" height="84.316" rx="1.15" transform="translate(314.054 131.493)" fill="#929597"/>
      <path id="Path_992" data-name="Path 992" d="M55.084,42.905l-8.812,3.159a.408.408,0,0,1-.322,0v-.172l8.812-3.159a.322.322,0,0,1,.322,0S55.192,42.862,55.084,42.905Z" transform="translate(52.487 47.107)" fill="#fff"/>
      <path id="Path_993" data-name="Path 993" d="M54.763,43.271l-8.21,2.945a.408.408,0,0,1-.322,0,.193.193,0,0,1,.107-.172l8.232-2.966a.408.408,0,0,1,.322,0A.21.21,0,0,1,54.763,43.271Z" transform="translate(52.809 47.515)" fill="#fff"/>
      <path id="Path_994" data-name="Path 994" d="M51.432,44.125l-4.6,1.633a.344.344,0,0,1-.322,0,.188.188,0,0,1,.129-.172l4.6-1.655a.344.344,0,0,1,.322,0S51.561,44.125,51.432,44.125Z" transform="translate(53.131 48.488)" fill="#fff"/>
      <path id="Path_995" data-name="Path 995" d="M42.456,48.705l-4.191,1.5a2.859,2.859,0,0,1-2.6-.107h0c-.451-.408,0-1.032.967-1.4l4.256-1.547a3.009,3.009,0,0,1,2.6,0h0C43.874,47.738,43.444,48.362,42.456,48.705Z" transform="translate(40.464 51.903)" fill="#fff"/>
      <path id="Path_996" data-name="Path 996" d="M53.14,56.111l-2.149.774a4.471,4.471,0,0,1-3.933-.172l-.43-.408a2.6,2.6,0,0,0-2.149,0l-5.653,2.02a.9.9,0,0,1-.86,0c-.129-.129,0-.322.322-.451l5.653-2.02a4.471,4.471,0,0,1,3.933.172l.43.408a2.6,2.6,0,0,0,2.149,0L52.6,55.66c.838-.3,1.225-.838.838-1.2l-3.482-3.2c-.666-.623,0-1.569,1.483-2.149l1.44-.537a4.578,4.578,0,0,1,3.955.172l1.376,1.29a2.6,2.6,0,0,0,2.149,0c.86-.3,1.225-.838.838-1.2h0a.774.774,0,0,1,0-1.118,3.16,3.16,0,0,1,1.612-1.01l5.7-2.149a.86.86,0,0,1,.838,0c.15.129,0,.322-.322.451h0l-5.7,2.042h0a1.805,1.805,0,0,0-.924.58.451.451,0,0,0,0,.645h0c.666.623,0,1.569-1.483,2.149a4.471,4.471,0,0,1-3.933-.172l-1.4-1.268a2.515,2.515,0,0,0-2.149,0L52,49.513c-.86.3-1.225.838-.838,1.182l3.46,3.224C55.29,54.628,54.559,55.574,53.14,56.111Z" transform="translate(43.255 49.118)" fill="#fff"/>
      <path id="Path_997" data-name="Path 997" d="M238.247,129.312,120.96,92.968l.451-4.062L175.724,60.32,293.462,92.6l-.451,4.062Z" transform="translate(138.695 67.369)" fill="#929597"/>
      <path id="Path_998" data-name="Path 998" d="M238.457,127.422,121.17,91.078,175.955,58.43,293.221,94.774Z" transform="translate(138.937 65.197)" fill="#f8f8f9"/>
      <path id="Path_999" data-name="Path 999" d="M187.377,87.894l-30.133,4.578-15.754-24.7L171.6,63.22Z" transform="translate(162.29 70.702)" fill="#4e2e91"/>
      <path id="Path_1000" data-name="Path 1000" d="M195.387,88.884,165.254,93.44,149.5,68.766l30.112-4.556Z" transform="translate(171.496 71.84)" fill="#9dbde3"/>
      <path id="Path_1001" data-name="Path 1001" d="M162.257,79.875l-16.614,2.536L136.96,68.785l16.614-2.515Z" transform="translate(157.084 74.207)" fill="#faa866"/>
      <path id="Path_1002" data-name="Path 1002" d="M23.06,85l83.951-26.974V1.67L23.06,28.644Z" transform="translate(26.18 -0.037)" fill="#1e1952"/>
      <path id="Path_1003" data-name="Path 1003" d="M181.261,88.7,97.89,61.1V4.75l83.371,27.6Z" transform="translate(112.181 3.503)" fill="#1e1952"/>
      <path id="Path_1004" data-name="Path 1004" d="M119.991,25.333l-16.807-5.567a3.74,3.74,0,0,1-2.644-3.138V10.546c0-1.247,1.182-1.891,2.644-1.4l16.807,5.5a3.761,3.761,0,0,1,2.644,3.138v6.147C122.635,25.183,121.453,25.828,119.991,25.333Z" transform="translate(115.227 8.367)" fill="#fff"/>
      <path id="Path_1005" data-name="Path 1005" d="M132.623,29.442h0A4.17,4.17,0,0,1,129.7,25.96V20.308c0-1.376,1.311-2.149,2.923-1.547h0a4.148,4.148,0,0,1,2.923,3.482v5.631C135.546,29.27,134.235,29.98,132.623,29.442Z" transform="translate(148.74 19.368)" fill="#fff"/>
      <path id="Path_1006" data-name="Path 1006" d="M128.423,28.079h0a4.3,4.3,0,0,1-2.923-3.5V18.944c0-1.4,1.311-2.149,2.923-1.569h0a4.17,4.17,0,0,1,2.923,3.482V26.51C131.346,27.907,130.035,28.595,128.423,28.079Z" transform="translate(143.913 17.787)" fill="#fff"/>
      <path id="Path_1007" data-name="Path 1007" d="M100.71,39.808l68.154,22.31s-1.913-35.377-11.95-30.09-14.68,7.63-19.559-4.707-6.964-3.89-8.6,6.254c-3.095,19.6-4.3-2.859-7.974-4.3-3.245-1.247-4.019,11.413-6.448,10.875s-2.149-9.5-3.912-10.123C106.664,28.761,109.243,42.28,100.71,39.808Z" transform="translate(115.422 22.392)" fill="#fff" opacity="0.3"/>
      <path id="Path_1008" data-name="Path 1008" d="M107,40.22l46.833,15.238s-1.333-27.468-8.232-23-10.08,6.448-13.433-3.095-4.771-2.816-5.868,5.115c-2.149,15.367-3.031-2.149-5.481-3.052s-2.751,9.006-4.428,8.6-1.5-7.308-2.687-7.759C111.084,31.429,112.868,41.81,107,40.22Z" transform="translate(122.651 26.408)" fill="#fff"/>
      <path id="Path_1009" data-name="Path 1009" d="M40.147,19.25l-7.931,2.837c-1.891.688-3.4-.279-3.4-2.149h0a5.266,5.266,0,0,1,3.4-4.556l7.931-2.837c1.87-.666,3.4.279,3.4,2.149h0a5.287,5.287,0,0,1-3.4,4.556Z" transform="translate(32.8 12.216)" fill="#fff"/>
      <path id="Path_1010" data-name="Path 1010" d="M36.923,28.56,29.25,31.311V44.959l7.673-2.73Z" transform="translate(33.294 30.868)" fill="#fff" opacity="0.3"/>
      <path id="Path_1011" data-name="Path 1011" d="M42.223,19.69,34.55,22.441v28.65l7.673-2.751Z" transform="translate(39.386 20.674)" fill="#fff"/>
      <path id="Path_1012" data-name="Path 1012" d="M47.043,22.55,39.37,25.28V44.107l7.673-2.751Z" transform="translate(44.925 23.961)" fill="#fff" opacity="0.3"/>
      <path id="Path_1013" data-name="Path 1013" d="M51.863,19.1,44.19,21.83V44.354l7.673-2.73Z" transform="translate(50.465 19.995)" fill="#fff"/>
      <path id="Path_1014" data-name="Path 1014" d="M56.683,23.23,49.01,25.96v9.951l7.673-2.73Z" transform="translate(56.004 24.742)" fill="#fff" opacity="0.3"/>
      <path id="Path_1015" data-name="Path 1015" d="M61.481,12.28,53.83,15.01V44.8l7.651-2.751Z" transform="translate(61.544 12.157)" fill="#fff"/>
      <path id="Path_1016" data-name="Path 1016" d="M0,0V260.966H6.856v-40.45l21.665-46.9,1.462-50.4L44.1,116.792l206.955,79.051.172,64.135H380.574V0Z" transform="translate(-0.322 -1.956)" fill="url(#linear-gradient)"/>
    </g>
  </g>
</svg>
