<svg xmlns="http://www.w3.org/2000/svg" width="112.4" height="40.8" viewBox="0 0 112.4 40.8">
  <g id="Group_162" data-name="Group 162" transform="translate(-0.001)">
    <g id="Ellipse_12" data-name="Ellipse 12" transform="translate(71.6 0)" fill="none" stroke="#fff" stroke-width="1">
      <circle cx="20.4" cy="20.4" r="20.4" stroke="none"/>
      <circle cx="20.4" cy="20.4" r="19.9" fill="none"/>
    </g>
    <g id="Ellipse_13" data-name="Ellipse 13" transform="translate(0 0)" fill="none" stroke="#fff" stroke-width="1">
      <circle cx="20.4" cy="20.4" r="20.4" stroke="none"/>
      <circle cx="20.4" cy="20.4" r="19.9" fill="none"/>
    </g>
    <g id="artificial-intelligence" transform="translate(9.158 9.92)">
      <g id="Group_415" data-name="Group 415" transform="translate(0 0)">
        <g id="Group_414" data-name="Group 414">
          <path id="Path_2561" data-name="Path 2561" d="M20.673,5.933A.891.891,0,0,0,19.739,5a1.615,1.615,0,0,0-.415,0L17.872,3.133a.938.938,0,0,0,.1-.519.891.891,0,0,0-.933-.933,1.03,1.03,0,0,0-.726.311L13.723.747c0-.03,0-.073,0-.1A1.066,1.066,0,0,0,12.686-.394a1.048,1.048,0,0,0-.933.726H7.915a1.048,1.048,0,0,0-.933-.726A.979.979,0,0,0,6.048.644a.718.718,0,0,0,0,.1l-1.66.83a1.106,1.106,0,0,0-.726-.311A.979.979,0,0,0,2.729,2.3a.938.938,0,0,0,.1.519L1.381,4.689a.911.911,0,0,0-.311,0,.979.979,0,0,0-1.037.933.954.954,0,0,0,.622.933V8.734a.954.954,0,0,0-.622.933A.979.979,0,0,0,1.07,10.6a.871.871,0,0,0,.83-.415l1.763.311a1.047,1.047,0,0,0,1.037.83h0l.622,1.556a.924.924,0,0,0-.311.726,1.066,1.066,0,0,0,1.037,1.037,1.025,1.025,0,0,0,.83-.415l2.8.83a1.006,1.006,0,0,0,.726.83V18.38a1.048,1.048,0,0,0-.726.933,1.066,1.066,0,0,0,1.037,1.037.979.979,0,0,0,.933-1.037.954.954,0,0,0-.622-.933V15.891a.954.954,0,0,0,.622-.933.825.825,0,0,0-.311-.726l.415-1.245,2.9,1.037a1.075,1.075,0,0,0,.726.933V18.38a1.048,1.048,0,0,0-.726.933,1.037,1.037,0,0,0,2.074,0,1.048,1.048,0,0,0-.726-.933V14.957a1.048,1.048,0,0,0,.726-.933,1.455,1.455,0,0,0-.1-.415l2.593-2.074a1.007,1.007,0,0,0,.519.1.979.979,0,0,0,.933-1.037.954.954,0,0,0-.622-.933v-2.8A.954.954,0,0,0,20.673,5.933ZM17.043,2.3a.3.3,0,0,1,.311.311c0,.184-.128.415-.311.415s-.311-.231-.311-.415A.3.3,0,0,1,17.043,2.3Zm-.519,1.245a1.154,1.154,0,0,0,.519.1.96.96,0,0,0,.311-.1l1.452,1.867a.941.941,0,0,0-.1.519,1.723,1.723,0,0,0,0,.207L16.317,7.386l-1.66-1.348a1.441,1.441,0,0,0,0-.415c0-.135.049-.194,0-.311ZM12.375,8.941a.929.929,0,0,0-.415.1L10.508,7.7,13,6.348a1.146,1.146,0,0,0,.726.311,1.1,1.1,0,0,0,.519-.207L15.694,7.8,13,9.252A.944.944,0,0,0,12.375,8.941Zm.311,1.037a.311.311,0,1,1-.311-.311A.3.3,0,0,1,12.686,9.979ZM7.6,6.348l.622,1.763-2.8,1.452a1.329,1.329,0,0,0-.519-.207L4.492,5.83l2.282-.1A.931.931,0,0,0,7.6,6.348ZM7.4,5.311a.311.311,0,1,1,.311.311A.3.3,0,0,1,7.4,5.311ZM8.434,8.734l.83,2.8L5.737,10.29c0-.04-.1-.065-.1-.1Zm0-2.282.933,1.037L8.849,7.8Zm.207-.726a.933.933,0,0,0,.1-.415,1.089,1.089,0,0,0-.1-.415L10.2,3.444,12.79,5.311a1.163,1.163,0,0,0-.1.311c0,.047-.006.162,0,.207L9.99,7.178Zm4.667-.1c0-.184.231-.311.415-.311a.311.311,0,1,1,0,.622C13.54,5.933,13.309,5.806,13.309,5.622Zm3.008,2.593L18.7,10.186l-5.186-.415ZM12.686.332A.3.3,0,0,1,13,.644a.311.311,0,0,1-.622,0A.3.3,0,0,1,12.686.332Zm-.415,1.245a.812.812,0,0,0,.415.1,1.03,1.03,0,0,0,.726-.311l2.593,1.141c0,.03,0,.073,0,.1a1.186,1.186,0,0,0,.1.415L14.138,4.792a.755.755,0,0,0-.415-.1,1.2,1.2,0,0,0-.622.1L10.716,2.926ZM11.753.955c.008.022-.009.083,0,.1L10.2,2.614,8.019.955ZM6.982.332c.184,0,.415.127.415.311s-.231.311-.415.311A.3.3,0,0,1,6.67.644.3.3,0,0,1,6.982.332ZM4.7,2.3a.718.718,0,0,0,0-.1l1.66-.83a.866.866,0,0,0,.622.311A1.268,1.268,0,0,0,7.6,1.473L9.678,3.029,8.123,4.378a.812.812,0,0,0-.415-.1A.986.986,0,0,0,6.774,5l-2.386.1L4.181,3.237A1.045,1.045,0,0,0,4.7,2.3ZM3.663,1.992c.184,0,.415.127.415.311s-.231.311-.415.311A.3.3,0,0,1,3.351,2.3.3.3,0,0,1,3.663,1.992ZM3.351,3.237c.039.013.063.1.1.1l.311,1.867L2,5.311A1.974,1.974,0,0,0,1.9,5.1ZM1.07,5.311a.311.311,0,1,1,0,.622c-.184,0-.415-.127-.415-.311S.886,5.311,1.07,5.311Zm0,4.667c-.184,0-.415-.127-.415-.311s.231-.311.415-.311a.311.311,0,1,1,0,.622Zm2.8-.207L2,9.46a.894.894,0,0,0-.622-.726V6.556A.958.958,0,0,0,2,5.933l1.867-.1.415,3.527A.921.921,0,0,0,3.87,9.771Zm.83.83a.311.311,0,1,1,.311-.311A.3.3,0,0,1,4.7,10.6Zm1.348,3.423c-.184,0-.311-.231-.311-.415a.311.311,0,1,1,.622,0C6.359,13.793,6.232,14.024,6.048,14.024Zm3.838.415-2.9-.83a.942.942,0,0,0-.933-.933h-.1l-.622-1.66c.046-.041.169-.055.207-.1L9.471,12.26l.622,1.971A.928.928,0,0,0,9.886,14.439Zm.83,5.186a.311.311,0,1,1,.311-.311A.3.3,0,0,1,10.716,19.625Zm0-4.356a.311.311,0,1,1,.311-.311A.3.3,0,0,1,10.716,15.268Zm0-1.348L10.3,12.572l.726.207Zm.519-1.763L9.99,11.742,9.056,8.423l.83-.415,1.556,1.556a.929.929,0,0,0-.1.415,1.112,1.112,0,0,0,.415.83Zm4.46,7.468a.311.311,0,1,1,.311-.311A.3.3,0,0,1,15.694,19.625Zm0-5.29a.3.3,0,0,1-.311-.311c0-.184.128-.415.311-.415s.311.231.311.415A.3.3,0,0,1,15.694,14.335Zm.519-1.245a1.011,1.011,0,0,0-.519-.1,1.112,1.112,0,0,0-.83.415l-2.9-1.037.415-1.348a1.108,1.108,0,0,0,.933-.622l5.393.519c.009.033.092.072.1.1ZM16.939,7.9l2.074-1.141c.1.086.188.06.311.1v2.8c-.061.022-.049.071-.1.1Zm2.8,3.112a.49.49,0,0,1-.415-.415c0-.184.231-.311.415-.311a.3.3,0,0,1,.311.311C20.05,10.785,19.923,11.016,19.739,11.016Zm0-4.667a.49.49,0,0,1-.415-.415c0-.184.231-.311.415-.311a.3.3,0,0,1,.311.311C20.05,6.117,19.923,6.348,19.739,6.348Z" transform="translate(-0.032 0.394)" fill="#fff"/>
          <rect id="Rectangle_481" data-name="Rectangle 481" width="0.726" height="0.726" transform="translate(0.622)" fill="#fff"/>
          <rect id="Rectangle_482" data-name="Rectangle 482" width="0.726" height="0.726" transform="translate(0.622 1.348)" fill="#fff"/>
          <rect id="Rectangle_483" data-name="Rectangle 483" width="0.622" height="0.622" transform="translate(1.348 0.726)" fill="#fff"/>
          <rect id="Rectangle_484" data-name="Rectangle 484" width="0.622" height="0.622" transform="translate(0 0.726)" fill="#fff"/>
          <rect id="Rectangle_485" data-name="Rectangle 485" width="0.622" height="0.726" transform="translate(17.321 15.351)" fill="#fff"/>
          <rect id="Rectangle_486" data-name="Rectangle 486" width="0.622" height="0.622" transform="translate(17.321 16.699)" fill="#fff"/>
          <rect id="Rectangle_487" data-name="Rectangle 487" width="0.726" height="0.622" transform="translate(17.944 16.077)" fill="#fff"/>
          <rect id="Rectangle_488" data-name="Rectangle 488" width="0.622" height="0.622" transform="translate(16.699 16.077)" fill="#fff"/>
          <rect id="Rectangle_489" data-name="Rectangle 489" width="0.726" height="0.726" transform="translate(19.292 1.348)" fill="#fff"/>
          <rect id="Rectangle_490" data-name="Rectangle 490" width="0.726" height="0.726" transform="translate(19.292 2.697)" fill="#fff"/>
          <rect id="Rectangle_491" data-name="Rectangle 491" width="0.622" height="0.622" transform="translate(20.018 2.074)" fill="#fff"/>
          <rect id="Rectangle_492" data-name="Rectangle 492" width="0.622" height="0.622" transform="translate(18.67 2.074)" fill="#fff"/>
          <rect id="Rectangle_493" data-name="Rectangle 493" width="0.622" height="0.622" transform="translate(4.045 16.077)" fill="#fff"/>
          <rect id="Rectangle_494" data-name="Rectangle 494" width="0.622" height="0.726" transform="translate(4.045 17.321)" fill="#fff"/>
          <rect id="Rectangle_495" data-name="Rectangle 495" width="0.622" height="0.622" transform="translate(4.667 16.699)" fill="#fff"/>
          <rect id="Rectangle_496" data-name="Rectangle 496" width="0.726" height="0.622" transform="translate(3.319 16.699)" fill="#fff"/>
          <rect id="Rectangle_497" data-name="Rectangle 497" width="0.726" height="0.726" transform="translate(1.971 12.343)" fill="#fff"/>
          <rect id="Rectangle_498" data-name="Rectangle 498" width="0.726" height="0.726" transform="translate(1.971 13.691)" fill="#fff"/>
          <rect id="Rectangle_499" data-name="Rectangle 499" width="0.622" height="0.622" transform="translate(2.697 13.069)" fill="#fff"/>
          <rect id="Rectangle_500" data-name="Rectangle 500" width="0.622" height="0.622" transform="translate(1.348 13.069)" fill="#fff"/>
        </g>
      </g>
    </g>
    <g id="Group_416" data-name="Group 416" transform="translate(-208.622 -4254.156)">
      <path id="Path_2591" data-name="Path 2591" d="M120.929,191.366a.923.923,0,0,1-.532-.266l-5.322-4.258a1.225,1.225,0,0,1-.266-.8.63.63,0,0,1,.266-.532l5.322-4.524a.715.715,0,0,1,1.064,0,1.051,1.051,0,0,1,0,1.331l-4.524,3.725,4.524,3.992a.715.715,0,0,1,0,1.064A.627.627,0,0,1,120.929,191.366Zm0,0" transform="translate(175.191 4088.597)" fill="#fff"/>
      <path id="Path_2592" data-name="Path 2592" d="M250.606,191.366a.627.627,0,0,1-.532-.266.715.715,0,0,1,0-1.064l4.524-3.992-4.524-3.726a1.05,1.05,0,0,1,0-1.33.715.715,0,0,1,1.064,0l5.322,4.524a.629.629,0,0,1,.266.532,1.224,1.224,0,0,1-.266.8l-5.322,4.258A.922.922,0,0,1,250.606,191.366Zm0,0" transform="translate(55.897 4088.597)" fill="#fff"/>
      <path id="Path_2593" data-name="Path 2593" d="M190.223,170.146a1.991,1.991,0,0,1-.266,0,.866.866,0,0,1-.532-1.064l3.193-15.434c.093-.439.359-.891.8-.8a1.05,1.05,0,0,1,.8,1.064l-3.193,15.434C190.941,169.731,190.6,170.146,190.223,170.146Zm0,0" transform="translate(109.36 4113.275)" fill="#fff"/>
    </g>
  </g>
</svg>
