<svg id="Group_432" data-name="Group 432" xmlns="http://www.w3.org/2000/svg" width="112.4" height="40.958" viewBox="0 0 112.4 40.958">
  <g id="Ellipse_12" data-name="Ellipse 12" transform="translate(71.6 0)" fill="none" stroke="#fff" stroke-width="1">
    <circle cx="20.4" cy="20.4" r="20.4" stroke="none"/>
    <circle cx="20.4" cy="20.4" r="19.9" fill="none"/>
  </g>
  <g id="Ellipse_13" data-name="Ellipse 13" transform="translate(0 0.158)" fill="none" stroke="#fff" stroke-width="1">
    <circle cx="20.4" cy="20.4" r="20.4" stroke="none"/>
    <circle cx="20.4" cy="20.4" r="19.9" fill="none"/>
  </g>
  <g id="clipboard" transform="translate(10 9.158)">
    <path id="Path_2563" data-name="Path 2563" d="M21.189,3.03a.261.261,0,0,0-.1-.207l-2.9-2.9a.261.261,0,0,0-.207-.1H7.5A1.1,1.1,0,0,0,6.461.955v.311H5.838A1.184,1.184,0,0,0,4.7,2.2a1.007,1.007,0,0,0,0,.519H4.283A1.465,1.465,0,0,0,2.831,4.17H.756A1.1,1.1,0,0,0-.385,5.208v15.04A1.19,1.19,0,0,0,.756,21.388H12.892a1.19,1.19,0,0,0,1.141-1.141V19.21h6.016a1.19,1.19,0,0,0,1.141-1.141Zm-2.9-1.971,1.66,1.66h-1.66ZM3.557,4.17a.732.732,0,0,1,.726-.726H5.735A.462.462,0,0,0,6.15,3.03c0-.2-.217-.311-.415-.311a.217.217,0,0,1-.207-.1.417.417,0,0,1-.1-.311.428.428,0,0,1,.415-.311H7.913c.184-.007.267.132.311.311.019.1.068.23,0,.311a.419.419,0,0,1-.311.1c-.2,0-.415.113-.415.311a.462.462,0,0,0,.415.415H9.365a.732.732,0,0,1,.726.726V5.208c0,.2-.217.311-.415.311h-5.7c-.2,0-.415-.113-.415-.311Zm9.75,16.077a.462.462,0,0,1-.415.415H.756a.462.462,0,0,1-.415-.415V5.208c0-.2.217-.311.415-.311H2.831v.311A1.1,1.1,0,0,0,3.972,6.245h5.7a1.1,1.1,0,0,0,1.141-1.037V4.9h2.074c.2,0,.415.113.415.311Zm6.742-1.763H14.032V5.208A1.1,1.1,0,0,0,12.892,4.17H10.817A1.465,1.465,0,0,0,9.365,2.718H8.95a1.007,1.007,0,0,0,0-.519,1.075,1.075,0,0,0-1.037-.933H7.187V.955c0-.2.113-.415.311-.415H17.559V3.03a.462.462,0,0,0,.415.415h2.489V18.069A.462.462,0,0,1,20.048,18.484Zm0,0" transform="translate(0.385 0.186)" fill="#fff"/>
    <path id="Path_2564" data-name="Path 2564" d="M52.54,175.757H48.287a.462.462,0,0,0-.415.415v4.253a.462.462,0,0,0,.415.415H52.54a.462.462,0,0,0,.415-.415v-4.253A.462.462,0,0,0,52.54,175.757Zm-.311,4.356H48.6v-3.63h3.63Zm0,0" transform="translate(-45.694 -167.874)" fill="#fff"/>
    <path id="Path_2565" data-name="Path 2565" d="M52.54,319.529H48.287a.462.462,0,0,0-.415.415V324.2a.462.462,0,0,0,.415.415H52.54a.462.462,0,0,0,.415-.415v-4.253A.462.462,0,0,0,52.54,319.529Zm-.311,4.356H48.6v-3.63h3.63Zm0,0" transform="translate(-45.694 -305.215)" fill="#fff"/>
    <path id="Path_2566" data-name="Path 2566" d="M224.956,175.757a1.19,1.19,0,0,0-1.141,1.141v8.609c0,.056.077.055.1.1h0l.622,1.452a.53.53,0,0,0,.415.207.353.353,0,0,0,.311-.207l.726-1.452h0c.026-.049,0-.048,0-.1V176.9A1.1,1.1,0,0,0,224.956,175.757Zm0,.726c.2,0,.311.217.311.415v.311h-.726V176.9A.462.462,0,0,1,224.956,176.483Zm.311,8.609h-.726v-7.157h.726Zm-.519.726h.311l-.1.311Zm0,0" transform="translate(-213.754 -167.874)" fill="#fff"/>
    <path id="Path_2569" data-name="Path 2569" d="M351.5,143.586h3.63v.726H351.5Zm0,0" transform="translate(-335.735 -137.155)" fill="#fff"/>
    <path id="Path_2572" data-name="Path 2572" d="M351.5,208.334h3.63v.726H351.5Zm0,0" transform="translate(-335.735 -200.14)" fill="#fff"/>
    <path id="Path_2575" data-name="Path 2575" d="M351.5,271.96h3.63v.726H351.5Zm0,0" transform="translate(-335.735 -262.21)" fill="#fff"/>
    <path id="Path_2576" data-name="Path 2576" d="M351.5,304.376h3.63v.726H351.5Zm0,0" transform="translate(-335.735 -292.967)" fill="#fff"/>
    <path id="Path_2577" data-name="Path 2577" d="M351.5,335.548h2.593v.726H351.5Zm0,0" transform="translate(-335.735 -322.79)" fill="#fff"/>
    <path id="Path_2578" data-name="Path 2578" d="M415.843,335.548h.726v.726h-.726Zm0,0" transform="translate(-397.174 -322.79)" fill="#fff"/>
    <path id="Path_2579" data-name="Path 2579" d="M351.5,367.719h.726v.726H351.5Zm0,0" transform="translate(-335.735 -353.509)" fill="#fff"/>
    <path id="Path_2580" data-name="Path 2580" d="M383.672,367.719h.726v.726h-.726Zm0,0" transform="translate(-366.454 -353.509)" fill="#fff"/>
    <path id="Path_2581" data-name="Path 2581" d="M415.843,367.719h.726v.726h-.726Zm0,0" transform="translate(-397.174 -353.509)" fill="#fff"/>
  </g>
  <g id="chess-piece" transform="translate(7.571 9.857)">
    <g id="Group_433" data-name="Group 433" transform="translate(77.44)">
      <path id="Path_2603" data-name="Path 2603" d="M90.782,17.989a1.377,1.377,0,0,0,.156-.626,1.4,1.4,0,0,0-1.4-1.4h-.485l-1.8-7.526A1.389,1.389,0,0,0,87.5,5.7l1.565-2.136a.392.392,0,0,0,.031-.059V3.481a.39.39,0,0,0,.031-.125V.391A.391.391,0,0,0,88.737,0h-1.49a.391.391,0,0,0-.391.391v.782H85.823V.391A.391.391,0,0,0,85.431,0h-1.78a.391.391,0,0,0-.391.391v.782H82.236V.391A.391.391,0,0,0,81.844,0h-1.5a.391.391,0,0,0-.391.391V3.333a.391.391,0,0,0,.027.133v.027a.392.392,0,0,0,.031.059l1.565,2.136a1.389,1.389,0,0,0,.243,2.738l-1.8,7.534h-.469a1.4,1.4,0,0,0-1.4,1.4,1.377,1.377,0,0,0,.149.614h-.078a.782.782,0,0,0-.782.782v2.026a.782.782,0,0,0,.782.782H90.646a.782.782,0,0,0,.782-.782V18.764A.782.782,0,0,0,90.782,17.989ZM80.734.778h.72v.782a.391.391,0,0,0,.391.391h1.807a.391.391,0,0,0,.391-.391V.778h.99v.782a.391.391,0,0,0,.391.391h1.811a.391.391,0,0,0,.391-.391V.778h.72V2.938H80.734Zm.391,2.942h6.853L86.566,5.648H82.525Zm.18,3.337s0-.005,0-.008l.023,0a.614.614,0,0,1,.614-.614h5.23a.614.614,0,1,1,0,1.228H81.931A.614.614,0,0,1,81.3,7.057Zm1.33,1.385h3.822l1.8,7.526H80.82ZM79.45,16.749a.618.618,0,0,1,.1,0h9.994a.614.614,0,1,1,0,1.224H79.548a.614.614,0,0,1-.1-1.224Zm11.2,4.041H78.218V18.76H90.649Z" transform="translate(-77.44 0)" fill="#fff"/>
    </g>
  </g>
</svg>
